<svg xmlns="http://www.w3.org/2000/svg" viewBox="0 0 900 1120" width="900" height="1120" role="img" aria-label="Engagement mehndi design placeholder"><title>Engagement mehndi design placeholder</title><defs>
<radialGradient id="bgg11" cx="50%" cy="42%" r="78%">
<stop offset="0%" stop-color="#FBF6EE"/><stop offset="100%" stop-color="#E5D3BE"/>
</radialGradient>
<filter id="graing11" x="0" y="0" width="100%" height="100%">
<feTurbulence type="fractalNoise" baseFrequency="0.9" numOctaves="3" result="n"/>
<feColorMatrix type="saturate" values="0"/>
<feComponentTransfer><feFuncA type="linear" slope="0.12"/></feComponentTransfer>
<feBlend in2="SourceGraphic" mode="multiply"/>
</filter>
</defs>
<rect width="900" height="1120" fill="url(#bgg11)"/>
<rect width="900" height="1120" filter="url(#graing11)" opacity=".5" fill="#FBF6EE"/><g><circle cx="270.0" cy="336.0" r="19.80" fill="#B08A4A" stroke="#B08A4A" stroke-width="2" stroke-linecap="round" stroke-linejoin="round" fill-opacity="0.9"/><path d="M 0,-23.759999999999998 Q 16.830000000000002,-41.58 0,-59.4 Q -16.830000000000002,-41.58 0,-23.759999999999998 Z" transform="translate(270.0,336.0) rotate(22.00)" fill="none" stroke="#5E1A2C" stroke-width="1.6" stroke-linecap="round" stroke-linejoin="round"/><path d="M 0,-23.759999999999998 Q 16.830000000000002,-41.58 0,-59.4 Q -16.830000000000002,-41.58 0,-23.759999999999998 Z" transform="translate(270.0,336.0) rotate(67.00)" fill="none" stroke="#5E1A2C" stroke-width="1.6" stroke-linecap="round" stroke-linejoin="round"/><path d="M 0,-23.759999999999998 Q 16.830000000000002,-41.58 0,-59.4 Q -16.830000000000002,-41.58 0,-23.759999999999998 Z" transform="translate(270.0,336.0) rotate(112.00)" fill="none" stroke="#5E1A2C" stroke-width="1.6" stroke-linecap="round" stroke-linejoin="round"/><path d="M 0,-23.759999999999998 Q 16.830000000000002,-41.58 0,-59.4 Q -16.830000000000002,-41.58 0,-23.759999999999998 Z" transform="translate(270.0,336.0) rotate(157.00)" fill="none" stroke="#5E1A2C" stroke-width="1.6" stroke-linecap="round" stroke-linejoin="round"/><path d="M 0,-23.759999999999998 Q 16.830000000000002,-41.58 0,-59.4 Q -16.830000000000002,-41.58 0,-23.759999999999998 Z" transform="translate(270.0,336.0) rotate(202.00)" fill="none" stroke="#5E1A2C" stroke-width="1.6" stroke-linecap="round" stroke-linejoin="round"/><path d="M 0,-23.759999999999998 Q 16.830000000000002,-41.58 0,-59.4 Q -16.830000000000002,-41.58 0,-23.759999999999998 Z" transform="translate(270.0,336.0) rotate(247.00)" fill="none" stroke="#5E1A2C" stroke-width="1.6" stroke-linecap="round" stroke-linejoin="round"/><path d="M 0,-23.759999999999998 Q 16.830000000000002,-41.58 0,-59.4 Q -16.830000000000002,-41.58 0,-23.759999999999998 Z" transform="translate(270.0,336.0) rotate(292.00)" fill="none" stroke="#5E1A2C" stroke-width="1.6" stroke-linecap="round" stroke-linejoin="round"/><path d="M 0,-23.759999999999998 Q 16.830000000000002,-41.58 0,-59.4 Q -16.830000000000002,-41.58 0,-23.759999999999998 Z" transform="translate(270.0,336.0) rotate(337.00)" fill="none" stroke="#5E1A2C" stroke-width="1.6" stroke-linecap="round" stroke-linejoin="round"/><circle cx="287.94" cy="269.06" r="3.168" fill="#5E1A2C" stroke="none" stroke-width="2" stroke-linecap="round" stroke-linejoin="round"/><circle cx="319.00" cy="287.00" r="3.168" fill="#5E1A2C" stroke="none" stroke-width="2" stroke-linecap="round" stroke-linejoin="round"/><circle cx="336.94" cy="318.06" r="3.168" fill="#5E1A2C" stroke="none" stroke-width="2" stroke-linecap="round" stroke-linejoin="round"/><circle cx="336.94" cy="353.94" r="3.168" fill="#5E1A2C" stroke="none" stroke-width="2" stroke-linecap="round" stroke-linejoin="round"/><circle cx="319.00" cy="385.00" r="3.168" fill="#5E1A2C" stroke="none" stroke-width="2" stroke-linecap="round" stroke-linejoin="round"/><circle cx="287.94" cy="402.94" r="3.168" fill="#5E1A2C" stroke="none" stroke-width="2" stroke-linecap="round" stroke-linejoin="round"/><circle cx="252.06" cy="402.94" r="3.168" fill="#5E1A2C" stroke="none" stroke-width="2" stroke-linecap="round" stroke-linejoin="round"/><circle cx="221.00" cy="385.00" r="3.168" fill="#5E1A2C" stroke="none" stroke-width="2" stroke-linecap="round" stroke-linejoin="round"/><circle cx="203.06" cy="353.94" r="3.168" fill="#5E1A2C" stroke="none" stroke-width="2" stroke-linecap="round" stroke-linejoin="round"/><circle cx="203.06" cy="318.06" r="3.168" fill="#5E1A2C" stroke="none" stroke-width="2" stroke-linecap="round" stroke-linejoin="round"/><circle cx="221.00" cy="287.00" r="3.168" fill="#5E1A2C" stroke="none" stroke-width="2" stroke-linecap="round" stroke-linejoin="round"/><circle cx="252.06" cy="269.06" r="3.168" fill="#5E1A2C" stroke="none" stroke-width="2" stroke-linecap="round" stroke-linejoin="round"/><circle cx="270.0" cy="336.0" r="83.16" fill="none" stroke="#5E1A2C" stroke-width="1.2" stroke-linecap="round" stroke-linejoin="round" stroke-opacity="0.7"/><path d="M 0,-87.12 Q 19.8,-112.86 0,-138.6 Q -19.8,-112.86 0,-87.12 Z" transform="translate(270.0,336.0) rotate(0.00)" fill="none" stroke="#5E1A2C" stroke-width="1.5" stroke-linecap="round" stroke-linejoin="round"/><path d="M 0,-87.12 Q 19.8,-112.86 0,-138.6 Q -19.8,-112.86 0,-87.12 Z" transform="translate(270.0,336.0) rotate(30.00)" fill="none" stroke="#5E1A2C" stroke-width="1.5" stroke-linecap="round" stroke-linejoin="round"/><path d="M 0,-87.12 Q 19.8,-112.86 0,-138.6 Q -19.8,-112.86 0,-87.12 Z" transform="translate(270.0,336.0) rotate(60.00)" fill="none" stroke="#5E1A2C" stroke-width="1.5" stroke-linecap="round" stroke-linejoin="round"/><path d="M 0,-87.12 Q 19.8,-112.86 0,-138.6 Q -19.8,-112.86 0,-87.12 Z" transform="translate(270.0,336.0) rotate(90.00)" fill="none" stroke="#5E1A2C" stroke-width="1.5" stroke-linecap="round" stroke-linejoin="round"/><path d="M 0,-87.12 Q 19.8,-112.86 0,-138.6 Q -19.8,-112.86 0,-87.12 Z" transform="translate(270.0,336.0) rotate(120.00)" fill="none" stroke="#5E1A2C" stroke-width="1.5" stroke-linecap="round" stroke-linejoin="round"/><path d="M 0,-87.12 Q 19.8,-112.86 0,-138.6 Q -19.8,-112.86 0,-87.12 Z" transform="translate(270.0,336.0) rotate(150.00)" fill="none" stroke="#5E1A2C" stroke-width="1.5" stroke-linecap="round" stroke-linejoin="round"/><path d="M 0,-87.12 Q 19.8,-112.86 0,-138.6 Q -19.8,-112.86 0,-87.12 Z" transform="translate(270.0,336.0) rotate(180.00)" fill="none" stroke="#5E1A2C" stroke-width="1.5" stroke-linecap="round" stroke-linejoin="round"/><path d="M 0,-87.12 Q 19.8,-112.86 0,-138.6 Q -19.8,-112.86 0,-87.12 Z" transform="translate(270.0,336.0) rotate(210.00)" fill="none" stroke="#5E1A2C" stroke-width="1.5" stroke-linecap="round" stroke-linejoin="round"/><path d="M 0,-87.12 Q 19.8,-112.86 0,-138.6 Q -19.8,-112.86 0,-87.12 Z" transform="translate(270.0,336.0) rotate(240.00)" fill="none" stroke="#5E1A2C" stroke-width="1.5" stroke-linecap="round" stroke-linejoin="round"/><path d="M 0,-87.12 Q 19.8,-112.86 0,-138.6 Q -19.8,-112.86 0,-87.12 Z" transform="translate(270.0,336.0) rotate(270.00)" fill="none" stroke="#5E1A2C" stroke-width="1.5" stroke-linecap="round" stroke-linejoin="round"/><path d="M 0,-87.12 Q 19.8,-112.86 0,-138.6 Q -19.8,-112.86 0,-87.12 Z" transform="translate(270.0,336.0) rotate(300.00)" fill="none" stroke="#5E1A2C" stroke-width="1.5" stroke-linecap="round" stroke-linejoin="round"/><path d="M 0,-87.12 Q 19.8,-112.86 0,-138.6 Q -19.8,-112.86 0,-87.12 Z" transform="translate(270.0,336.0) rotate(330.00)" fill="none" stroke="#5E1A2C" stroke-width="1.5" stroke-linecap="round" stroke-linejoin="round"/><circle cx="299.72" cy="225.07" r="4.356" fill="#B08A4A" stroke="none" stroke-width="2" stroke-linecap="round" stroke-linejoin="round"/><circle cx="351.20" cy="254.80" r="4.356" fill="#B08A4A" stroke="none" stroke-width="2" stroke-linecap="round" stroke-linejoin="round"/><circle cx="380.93" cy="306.28" r="4.356" fill="#B08A4A" stroke="none" stroke-width="2" stroke-linecap="round" stroke-linejoin="round"/><circle cx="380.93" cy="365.72" r="4.356" fill="#B08A4A" stroke="none" stroke-width="2" stroke-linecap="round" stroke-linejoin="round"/><circle cx="351.20" cy="417.20" r="4.356" fill="#B08A4A" stroke="none" stroke-width="2" stroke-linecap="round" stroke-linejoin="round"/><circle cx="299.72" cy="446.93" r="4.356" fill="#B08A4A" stroke="none" stroke-width="2" stroke-linecap="round" stroke-linejoin="round"/><circle cx="240.28" cy="446.93" r="4.356" fill="#B08A4A" stroke="none" stroke-width="2" stroke-linecap="round" stroke-linejoin="round"/><circle cx="188.80" cy="417.20" r="4.356" fill="#B08A4A" stroke="none" stroke-width="2" stroke-linecap="round" stroke-linejoin="round"/><circle cx="159.07" cy="365.72" r="4.356" fill="#B08A4A" stroke="none" stroke-width="2" stroke-linecap="round" stroke-linejoin="round"/><circle cx="159.07" cy="306.28" r="4.356" fill="#B08A4A" stroke="none" stroke-width="2" stroke-linecap="round" stroke-linejoin="round"/><circle cx="188.80" cy="254.80" r="4.356" fill="#B08A4A" stroke="none" stroke-width="2" stroke-linecap="round" stroke-linejoin="round"/><circle cx="240.28" cy="225.07" r="4.356" fill="#B08A4A" stroke="none" stroke-width="2" stroke-linecap="round" stroke-linejoin="round"/><circle cx="270.0" cy="336.0" r="146.52" fill="none" stroke="#5E1A2C" stroke-width="1.1" stroke-linecap="round" stroke-linejoin="round" stroke-opacity="0.6"/><path d="M 270.00,189.48 A 168.30,168.30 0 0 1 326.07,200.63" fill="none" stroke="#5E1A2C" stroke-width="1.4" stroke-linecap="round" stroke-linejoin="round"/><path d="M 326.07,200.63 A 168.30,168.30 0 0 1 373.61,232.39" fill="none" stroke="#5E1A2C" stroke-width="1.4" stroke-linecap="round" stroke-linejoin="round"/><path d="M 373.61,232.39 A 168.30,168.30 0 0 1 405.37,279.93" fill="none" stroke="#5E1A2C" stroke-width="1.4" stroke-linecap="round" stroke-linejoin="round"/><path d="M 405.37,279.93 A 168.30,168.30 0 0 1 416.52,336.00" fill="none" stroke="#5E1A2C" stroke-width="1.4" stroke-linecap="round" stroke-linejoin="round"/><path d="M 416.52,336.00 A 168.30,168.30 0 0 1 405.37,392.07" fill="none" stroke="#5E1A2C" stroke-width="1.4" stroke-linecap="round" stroke-linejoin="round"/><path d="M 405.37,392.07 A 168.30,168.30 0 0 1 373.61,439.61" fill="none" stroke="#5E1A2C" stroke-width="1.4" stroke-linecap="round" stroke-linejoin="round"/><path d="M 373.61,439.61 A 168.30,168.30 0 0 1 326.07,471.37" fill="none" stroke="#5E1A2C" stroke-width="1.4" stroke-linecap="round" stroke-linejoin="round"/><path d="M 326.07,471.37 A 168.30,168.30 0 0 1 270.00,482.52" fill="none" stroke="#5E1A2C" stroke-width="1.4" stroke-linecap="round" stroke-linejoin="round"/><path d="M 270.00,482.52 A 168.30,168.30 0 0 1 213.93,471.37" fill="none" stroke="#5E1A2C" stroke-width="1.4" stroke-linecap="round" stroke-linejoin="round"/><path d="M 213.93,471.37 A 168.30,168.30 0 0 1 166.39,439.61" fill="none" stroke="#5E1A2C" stroke-width="1.4" stroke-linecap="round" stroke-linejoin="round"/><path d="M 166.39,439.61 A 168.30,168.30 0 0 1 134.63,392.07" fill="none" stroke="#5E1A2C" stroke-width="1.4" stroke-linecap="round" stroke-linejoin="round"/><path d="M 134.63,392.07 A 168.30,168.30 0 0 1 123.48,336.00" fill="none" stroke="#5E1A2C" stroke-width="1.4" stroke-linecap="round" stroke-linejoin="round"/><path d="M 123.48,336.00 A 168.30,168.30 0 0 1 134.63,279.93" fill="none" stroke="#5E1A2C" stroke-width="1.4" stroke-linecap="round" stroke-linejoin="round"/><path d="M 134.63,279.93 A 168.30,168.30 0 0 1 166.39,232.39" fill="none" stroke="#5E1A2C" stroke-width="1.4" stroke-linecap="round" stroke-linejoin="round"/><path d="M 166.39,232.39 A 168.30,168.30 0 0 1 213.93,200.63" fill="none" stroke="#5E1A2C" stroke-width="1.4" stroke-linecap="round" stroke-linejoin="round"/><path d="M 213.93,200.63 A 168.30,168.30 0 0 1 270.00,189.48" fill="none" stroke="#5E1A2C" stroke-width="1.4" stroke-linecap="round" stroke-linejoin="round"/><circle cx="305.14" cy="155.24" r="3.5639999999999996" fill="#5E1A2C" stroke="none" stroke-width="2" stroke-linecap="round" stroke-linejoin="round"/><circle cx="371.63" cy="182.45" r="3.5639999999999996" fill="#5E1A2C" stroke="none" stroke-width="2" stroke-linecap="round" stroke-linejoin="round"/><circle cx="422.66" cy="233.03" r="3.5639999999999996" fill="#5E1A2C" stroke="none" stroke-width="2" stroke-linecap="round" stroke-linejoin="round"/><circle cx="450.44" cy="299.29" r="3.5639999999999996" fill="#5E1A2C" stroke="none" stroke-width="2" stroke-linecap="round" stroke-linejoin="round"/><circle cx="450.76" cy="371.14" r="3.5639999999999996" fill="#5E1A2C" stroke="none" stroke-width="2" stroke-linecap="round" stroke-linejoin="round"/><circle cx="423.55" cy="437.63" r="3.5639999999999996" fill="#5E1A2C" stroke="none" stroke-width="2" stroke-linecap="round" stroke-linejoin="round"/><circle cx="372.97" cy="488.66" r="3.5639999999999996" fill="#5E1A2C" stroke="none" stroke-width="2" stroke-linecap="round" stroke-linejoin="round"/><circle cx="306.71" cy="516.44" r="3.5639999999999996" fill="#5E1A2C" stroke="none" stroke-width="2" stroke-linecap="round" stroke-linejoin="round"/><circle cx="234.86" cy="516.76" r="3.5639999999999996" fill="#5E1A2C" stroke="none" stroke-width="2" stroke-linecap="round" stroke-linejoin="round"/><circle cx="168.37" cy="489.55" r="3.5639999999999996" fill="#5E1A2C" stroke="none" stroke-width="2" stroke-linecap="round" stroke-linejoin="round"/><circle cx="117.34" cy="438.97" r="3.5639999999999996" fill="#5E1A2C" stroke="none" stroke-width="2" stroke-linecap="round" stroke-linejoin="round"/><circle cx="89.56" cy="372.71" r="3.5639999999999996" fill="#5E1A2C" stroke="none" stroke-width="2" stroke-linecap="round" stroke-linejoin="round"/><circle cx="89.24" cy="300.86" r="3.5639999999999996" fill="#5E1A2C" stroke="none" stroke-width="2" stroke-linecap="round" stroke-linejoin="round"/><circle cx="116.45" cy="234.37" r="3.5639999999999996" fill="#5E1A2C" stroke="none" stroke-width="2" stroke-linecap="round" stroke-linejoin="round"/><circle cx="167.03" cy="183.34" r="3.5639999999999996" fill="#5E1A2C" stroke="none" stroke-width="2" stroke-linecap="round" stroke-linejoin="round"/><circle cx="233.29" cy="155.56" r="3.5639999999999996" fill="#5E1A2C" stroke="none" stroke-width="2" stroke-linecap="round" stroke-linejoin="round"/><path d="M 0,-190.07999999999998 C 21.78,-208.10 19.60,-228.49 0,-241.56 C -19.60,-228.49 -21.78,-208.10 0,-190.07999999999998 Z" transform="translate(270.0,336.0) rotate(11.00)" fill="none" stroke="#5E1A2C" stroke-width="1.4" stroke-linecap="round" stroke-linejoin="round"/><path d="M 0,-190.07999999999998 C 21.78,-208.10 19.60,-228.49 0,-241.56 C -19.60,-228.49 -21.78,-208.10 0,-190.07999999999998 Z" transform="translate(270.0,336.0) rotate(33.50)" fill="none" stroke="#5E1A2C" stroke-width="1.4" stroke-linecap="round" stroke-linejoin="round"/><path d="M 0,-190.07999999999998 C 21.78,-208.10 19.60,-228.49 0,-241.56 C -19.60,-228.49 -21.78,-208.10 0,-190.07999999999998 Z" transform="translate(270.0,336.0) rotate(56.00)" fill="none" stroke="#5E1A2C" stroke-width="1.4" stroke-linecap="round" stroke-linejoin="round"/><path d="M 0,-190.07999999999998 C 21.78,-208.10 19.60,-228.49 0,-241.56 C -19.60,-228.49 -21.78,-208.10 0,-190.07999999999998 Z" transform="translate(270.0,336.0) rotate(78.50)" fill="none" stroke="#5E1A2C" stroke-width="1.4" stroke-linecap="round" stroke-linejoin="round"/><path d="M 0,-190.07999999999998 C 21.78,-208.10 19.60,-228.49 0,-241.56 C -19.60,-228.49 -21.78,-208.10 0,-190.07999999999998 Z" transform="translate(270.0,336.0) rotate(101.00)" fill="none" stroke="#5E1A2C" stroke-width="1.4" stroke-linecap="round" stroke-linejoin="round"/><path d="M 0,-190.07999999999998 C 21.78,-208.10 19.60,-228.49 0,-241.56 C -19.60,-228.49 -21.78,-208.10 0,-190.07999999999998 Z" transform="translate(270.0,336.0) rotate(123.50)" fill="none" stroke="#5E1A2C" stroke-width="1.4" stroke-linecap="round" stroke-linejoin="round"/><path d="M 0,-190.07999999999998 C 21.78,-208.10 19.60,-228.49 0,-241.56 C -19.60,-228.49 -21.78,-208.10 0,-190.07999999999998 Z" transform="translate(270.0,336.0) rotate(146.00)" fill="none" stroke="#5E1A2C" stroke-width="1.4" stroke-linecap="round" stroke-linejoin="round"/><path d="M 0,-190.07999999999998 C 21.78,-208.10 19.60,-228.49 0,-241.56 C -19.60,-228.49 -21.78,-208.10 0,-190.07999999999998 Z" transform="translate(270.0,336.0) rotate(168.50)" fill="none" stroke="#5E1A2C" stroke-width="1.4" stroke-linecap="round" stroke-linejoin="round"/><path d="M 0,-190.07999999999998 C 21.78,-208.10 19.60,-228.49 0,-241.56 C -19.60,-228.49 -21.78,-208.10 0,-190.07999999999998 Z" transform="translate(270.0,336.0) rotate(191.00)" fill="none" stroke="#5E1A2C" stroke-width="1.4" stroke-linecap="round" stroke-linejoin="round"/><path d="M 0,-190.07999999999998 C 21.78,-208.10 19.60,-228.49 0,-241.56 C -19.60,-228.49 -21.78,-208.10 0,-190.07999999999998 Z" transform="translate(270.0,336.0) rotate(213.50)" fill="none" stroke="#5E1A2C" stroke-width="1.4" stroke-linecap="round" stroke-linejoin="round"/><path d="M 0,-190.07999999999998 C 21.78,-208.10 19.60,-228.49 0,-241.56 C -19.60,-228.49 -21.78,-208.10 0,-190.07999999999998 Z" transform="translate(270.0,336.0) rotate(236.00)" fill="none" stroke="#5E1A2C" stroke-width="1.4" stroke-linecap="round" stroke-linejoin="round"/><path d="M 0,-190.07999999999998 C 21.78,-208.10 19.60,-228.49 0,-241.56 C -19.60,-228.49 -21.78,-208.10 0,-190.07999999999998 Z" transform="translate(270.0,336.0) rotate(258.50)" fill="none" stroke="#5E1A2C" stroke-width="1.4" stroke-linecap="round" stroke-linejoin="round"/><path d="M 0,-190.07999999999998 C 21.78,-208.10 19.60,-228.49 0,-241.56 C -19.60,-228.49 -21.78,-208.10 0,-190.07999999999998 Z" transform="translate(270.0,336.0) rotate(281.00)" fill="none" stroke="#5E1A2C" stroke-width="1.4" stroke-linecap="round" stroke-linejoin="round"/><path d="M 0,-190.07999999999998 C 21.78,-208.10 19.60,-228.49 0,-241.56 C -19.60,-228.49 -21.78,-208.10 0,-190.07999999999998 Z" transform="translate(270.0,336.0) rotate(303.50)" fill="none" stroke="#5E1A2C" stroke-width="1.4" stroke-linecap="round" stroke-linejoin="round"/><path d="M 0,-190.07999999999998 C 21.78,-208.10 19.60,-228.49 0,-241.56 C -19.60,-228.49 -21.78,-208.10 0,-190.07999999999998 Z" transform="translate(270.0,336.0) rotate(326.00)" fill="none" stroke="#5E1A2C" stroke-width="1.4" stroke-linecap="round" stroke-linejoin="round"/><path d="M 0,-190.07999999999998 C 21.78,-208.10 19.60,-228.49 0,-241.56 C -19.60,-228.49 -21.78,-208.10 0,-190.07999999999998 Z" transform="translate(270.0,336.0) rotate(348.50)" fill="none" stroke="#5E1A2C" stroke-width="1.4" stroke-linecap="round" stroke-linejoin="round"/></g><g><circle cx="648.0" cy="739.2" r="23.40" fill="#B08A4A" stroke="#B08A4A" stroke-width="2" stroke-linecap="round" stroke-linejoin="round" fill-opacity="0.9"/><path d="M 0,-28.08 Q 19.89,-49.14 0,-70.2 Q -19.89,-49.14 0,-28.08 Z" transform="translate(648.0,739.2) rotate(0.00)" fill="none" stroke="#5E1A2C" stroke-width="1.6" stroke-linecap="round" stroke-linejoin="round"/><path d="M 0,-28.08 Q 19.89,-49.14 0,-70.2 Q -19.89,-49.14 0,-28.08 Z" transform="translate(648.0,739.2) rotate(45.00)" fill="none" stroke="#5E1A2C" stroke-width="1.6" stroke-linecap="round" stroke-linejoin="round"/><path d="M 0,-28.08 Q 19.89,-49.14 0,-70.2 Q -19.89,-49.14 0,-28.08 Z" transform="translate(648.0,739.2) rotate(90.00)" fill="none" stroke="#5E1A2C" stroke-width="1.6" stroke-linecap="round" stroke-linejoin="round"/><path d="M 0,-28.08 Q 19.89,-49.14 0,-70.2 Q -19.89,-49.14 0,-28.08 Z" transform="translate(648.0,739.2) rotate(135.00)" fill="none" stroke="#5E1A2C" stroke-width="1.6" stroke-linecap="round" stroke-linejoin="round"/><path d="M 0,-28.08 Q 19.89,-49.14 0,-70.2 Q -19.89,-49.14 0,-28.08 Z" transform="translate(648.0,739.2) rotate(180.00)" fill="none" stroke="#5E1A2C" stroke-width="1.6" stroke-linecap="round" stroke-linejoin="round"/><path d="M 0,-28.08 Q 19.89,-49.14 0,-70.2 Q -19.89,-49.14 0,-28.08 Z" transform="translate(648.0,739.2) rotate(225.00)" fill="none" stroke="#5E1A2C" stroke-width="1.6" stroke-linecap="round" stroke-linejoin="round"/><path d="M 0,-28.08 Q 19.89,-49.14 0,-70.2 Q -19.89,-49.14 0,-28.08 Z" transform="translate(648.0,739.2) rotate(270.00)" fill="none" stroke="#5E1A2C" stroke-width="1.6" stroke-linecap="round" stroke-linejoin="round"/><path d="M 0,-28.08 Q 19.89,-49.14 0,-70.2 Q -19.89,-49.14 0,-28.08 Z" transform="translate(648.0,739.2) rotate(315.00)" fill="none" stroke="#5E1A2C" stroke-width="1.6" stroke-linecap="round" stroke-linejoin="round"/><circle cx="669.20" cy="660.09" r="3.744" fill="#5E1A2C" stroke="none" stroke-width="2" stroke-linecap="round" stroke-linejoin="round"/><circle cx="705.91" cy="681.29" r="3.744" fill="#5E1A2C" stroke="none" stroke-width="2" stroke-linecap="round" stroke-linejoin="round"/><circle cx="727.11" cy="718.00" r="3.744" fill="#5E1A2C" stroke="none" stroke-width="2" stroke-linecap="round" stroke-linejoin="round"/><circle cx="727.11" cy="760.40" r="3.744" fill="#5E1A2C" stroke="none" stroke-width="2" stroke-linecap="round" stroke-linejoin="round"/><circle cx="705.91" cy="797.11" r="3.744" fill="#5E1A2C" stroke="none" stroke-width="2" stroke-linecap="round" stroke-linejoin="round"/><circle cx="669.20" cy="818.31" r="3.744" fill="#5E1A2C" stroke="none" stroke-width="2" stroke-linecap="round" stroke-linejoin="round"/><circle cx="626.80" cy="818.31" r="3.744" fill="#5E1A2C" stroke="none" stroke-width="2" stroke-linecap="round" stroke-linejoin="round"/><circle cx="590.09" cy="797.11" r="3.744" fill="#5E1A2C" stroke="none" stroke-width="2" stroke-linecap="round" stroke-linejoin="round"/><circle cx="568.89" cy="760.40" r="3.744" fill="#5E1A2C" stroke="none" stroke-width="2" stroke-linecap="round" stroke-linejoin="round"/><circle cx="568.89" cy="718.00" r="3.744" fill="#5E1A2C" stroke="none" stroke-width="2" stroke-linecap="round" stroke-linejoin="round"/><circle cx="590.09" cy="681.29" r="3.744" fill="#5E1A2C" stroke="none" stroke-width="2" stroke-linecap="round" stroke-linejoin="round"/><circle cx="626.80" cy="660.09" r="3.744" fill="#5E1A2C" stroke="none" stroke-width="2" stroke-linecap="round" stroke-linejoin="round"/><circle cx="648.0" cy="739.2" r="98.28" fill="none" stroke="#5E1A2C" stroke-width="1.2" stroke-linecap="round" stroke-linejoin="round" stroke-opacity="0.7"/><path d="M 0,-102.96 Q 23.400000000000002,-133.38 0,-163.79999999999998 Q -23.400000000000002,-133.38 0,-102.96 Z" transform="translate(648.0,739.2) rotate(0.00)" fill="none" stroke="#5E1A2C" stroke-width="1.5" stroke-linecap="round" stroke-linejoin="round"/><path d="M 0,-102.96 Q 23.400000000000002,-133.38 0,-163.79999999999998 Q -23.400000000000002,-133.38 0,-102.96 Z" transform="translate(648.0,739.2) rotate(30.00)" fill="none" stroke="#5E1A2C" stroke-width="1.5" stroke-linecap="round" stroke-linejoin="round"/><path d="M 0,-102.96 Q 23.400000000000002,-133.38 0,-163.79999999999998 Q -23.400000000000002,-133.38 0,-102.96 Z" transform="translate(648.0,739.2) rotate(60.00)" fill="none" stroke="#5E1A2C" stroke-width="1.5" stroke-linecap="round" stroke-linejoin="round"/><path d="M 0,-102.96 Q 23.400000000000002,-133.38 0,-163.79999999999998 Q -23.400000000000002,-133.38 0,-102.96 Z" transform="translate(648.0,739.2) rotate(90.00)" fill="none" stroke="#5E1A2C" stroke-width="1.5" stroke-linecap="round" stroke-linejoin="round"/><path d="M 0,-102.96 Q 23.400000000000002,-133.38 0,-163.79999999999998 Q -23.400000000000002,-133.38 0,-102.96 Z" transform="translate(648.0,739.2) rotate(120.00)" fill="none" stroke="#5E1A2C" stroke-width="1.5" stroke-linecap="round" stroke-linejoin="round"/><path d="M 0,-102.96 Q 23.400000000000002,-133.38 0,-163.79999999999998 Q -23.400000000000002,-133.38 0,-102.96 Z" transform="translate(648.0,739.2) rotate(150.00)" fill="none" stroke="#5E1A2C" stroke-width="1.5" stroke-linecap="round" stroke-linejoin="round"/><path d="M 0,-102.96 Q 23.400000000000002,-133.38 0,-163.79999999999998 Q -23.400000000000002,-133.38 0,-102.96 Z" transform="translate(648.0,739.2) rotate(180.00)" fill="none" stroke="#5E1A2C" stroke-width="1.5" stroke-linecap="round" stroke-linejoin="round"/><path d="M 0,-102.96 Q 23.400000000000002,-133.38 0,-163.79999999999998 Q -23.400000000000002,-133.38 0,-102.96 Z" transform="translate(648.0,739.2) rotate(210.00)" fill="none" stroke="#5E1A2C" stroke-width="1.5" stroke-linecap="round" stroke-linejoin="round"/><path d="M 0,-102.96 Q 23.400000000000002,-133.38 0,-163.79999999999998 Q -23.400000000000002,-133.38 0,-102.96 Z" transform="translate(648.0,739.2) rotate(240.00)" fill="none" stroke="#5E1A2C" stroke-width="1.5" stroke-linecap="round" stroke-linejoin="round"/><path d="M 0,-102.96 Q 23.400000000000002,-133.38 0,-163.79999999999998 Q -23.400000000000002,-133.38 0,-102.96 Z" transform="translate(648.0,739.2) rotate(270.00)" fill="none" stroke="#5E1A2C" stroke-width="1.5" stroke-linecap="round" stroke-linejoin="round"/><path d="M 0,-102.96 Q 23.400000000000002,-133.38 0,-163.79999999999998 Q -23.400000000000002,-133.38 0,-102.96 Z" transform="translate(648.0,739.2) rotate(300.00)" fill="none" stroke="#5E1A2C" stroke-width="1.5" stroke-linecap="round" stroke-linejoin="round"/><path d="M 0,-102.96 Q 23.400000000000002,-133.38 0,-163.79999999999998 Q -23.400000000000002,-133.38 0,-102.96 Z" transform="translate(648.0,739.2) rotate(330.00)" fill="none" stroke="#5E1A2C" stroke-width="1.5" stroke-linecap="round" stroke-linejoin="round"/><circle cx="683.13" cy="608.10" r="5.148" fill="#B08A4A" stroke="none" stroke-width="2" stroke-linecap="round" stroke-linejoin="round"/><circle cx="743.97" cy="643.23" r="5.148" fill="#B08A4A" stroke="none" stroke-width="2" stroke-linecap="round" stroke-linejoin="round"/><circle cx="779.10" cy="704.07" r="5.148" fill="#B08A4A" stroke="none" stroke-width="2" stroke-linecap="round" stroke-linejoin="round"/><circle cx="779.10" cy="774.33" r="5.148" fill="#B08A4A" stroke="none" stroke-width="2" stroke-linecap="round" stroke-linejoin="round"/><circle cx="743.97" cy="835.17" r="5.148" fill="#B08A4A" stroke="none" stroke-width="2" stroke-linecap="round" stroke-linejoin="round"/><circle cx="683.13" cy="870.30" r="5.148" fill="#B08A4A" stroke="none" stroke-width="2" stroke-linecap="round" stroke-linejoin="round"/><circle cx="612.87" cy="870.30" r="5.148" fill="#B08A4A" stroke="none" stroke-width="2" stroke-linecap="round" stroke-linejoin="round"/><circle cx="552.03" cy="835.17" r="5.148" fill="#B08A4A" stroke="none" stroke-width="2" stroke-linecap="round" stroke-linejoin="round"/><circle cx="516.90" cy="774.33" r="5.148" fill="#B08A4A" stroke="none" stroke-width="2" stroke-linecap="round" stroke-linejoin="round"/><circle cx="516.90" cy="704.07" r="5.148" fill="#B08A4A" stroke="none" stroke-width="2" stroke-linecap="round" stroke-linejoin="round"/><circle cx="552.03" cy="643.23" r="5.148" fill="#B08A4A" stroke="none" stroke-width="2" stroke-linecap="round" stroke-linejoin="round"/><circle cx="612.87" cy="608.10" r="5.148" fill="#B08A4A" stroke="none" stroke-width="2" stroke-linecap="round" stroke-linejoin="round"/><circle cx="648.0" cy="739.2" r="173.16" fill="none" stroke="#5E1A2C" stroke-width="1.1" stroke-linecap="round" stroke-linejoin="round" stroke-opacity="0.6"/><path d="M 648.00,566.04 A 198.90,198.90 0 0 1 714.27,579.22" fill="none" stroke="#5E1A2C" stroke-width="1.4" stroke-linecap="round" stroke-linejoin="round"/><path d="M 714.27,579.22 A 198.90,198.90 0 0 1 770.44,616.76" fill="none" stroke="#5E1A2C" stroke-width="1.4" stroke-linecap="round" stroke-linejoin="round"/><path d="M 770.44,616.76 A 198.90,198.90 0 0 1 807.98,672.93" fill="none" stroke="#5E1A2C" stroke-width="1.4" stroke-linecap="round" stroke-linejoin="round"/><path d="M 807.98,672.93 A 198.90,198.90 0 0 1 821.16,739.20" fill="none" stroke="#5E1A2C" stroke-width="1.4" stroke-linecap="round" stroke-linejoin="round"/><path d="M 821.16,739.20 A 198.90,198.90 0 0 1 807.98,805.47" fill="none" stroke="#5E1A2C" stroke-width="1.4" stroke-linecap="round" stroke-linejoin="round"/><path d="M 807.98,805.47 A 198.90,198.90 0 0 1 770.44,861.64" fill="none" stroke="#5E1A2C" stroke-width="1.4" stroke-linecap="round" stroke-linejoin="round"/><path d="M 770.44,861.64 A 198.90,198.90 0 0 1 714.27,899.18" fill="none" stroke="#5E1A2C" stroke-width="1.4" stroke-linecap="round" stroke-linejoin="round"/><path d="M 714.27,899.18 A 198.90,198.90 0 0 1 648.00,912.36" fill="none" stroke="#5E1A2C" stroke-width="1.4" stroke-linecap="round" stroke-linejoin="round"/><path d="M 648.00,912.36 A 198.90,198.90 0 0 1 581.73,899.18" fill="none" stroke="#5E1A2C" stroke-width="1.4" stroke-linecap="round" stroke-linejoin="round"/><path d="M 581.73,899.18 A 198.90,198.90 0 0 1 525.56,861.64" fill="none" stroke="#5E1A2C" stroke-width="1.4" stroke-linecap="round" stroke-linejoin="round"/><path d="M 525.56,861.64 A 198.90,198.90 0 0 1 488.02,805.47" fill="none" stroke="#5E1A2C" stroke-width="1.4" stroke-linecap="round" stroke-linejoin="round"/><path d="M 488.02,805.47 A 198.90,198.90 0 0 1 474.84,739.20" fill="none" stroke="#5E1A2C" stroke-width="1.4" stroke-linecap="round" stroke-linejoin="round"/><path d="M 474.84,739.20 A 198.90,198.90 0 0 1 488.02,672.93" fill="none" stroke="#5E1A2C" stroke-width="1.4" stroke-linecap="round" stroke-linejoin="round"/><path d="M 488.02,672.93 A 198.90,198.90 0 0 1 525.56,616.76" fill="none" stroke="#5E1A2C" stroke-width="1.4" stroke-linecap="round" stroke-linejoin="round"/><path d="M 525.56,616.76 A 198.90,198.90 0 0 1 581.73,579.22" fill="none" stroke="#5E1A2C" stroke-width="1.4" stroke-linecap="round" stroke-linejoin="round"/><path d="M 581.73,579.22 A 198.90,198.90 0 0 1 648.00,566.04" fill="none" stroke="#5E1A2C" stroke-width="1.4" stroke-linecap="round" stroke-linejoin="round"/><circle cx="689.52" cy="525.58" r="4.212" fill="#5E1A2C" stroke="none" stroke-width="2" stroke-linecap="round" stroke-linejoin="round"/><circle cx="768.11" cy="557.73" r="4.212" fill="#5E1A2C" stroke="none" stroke-width="2" stroke-linecap="round" stroke-linejoin="round"/><circle cx="828.42" cy="617.51" r="4.212" fill="#5E1A2C" stroke="none" stroke-width="2" stroke-linecap="round" stroke-linejoin="round"/><circle cx="861.25" cy="695.81" r="4.212" fill="#5E1A2C" stroke="none" stroke-width="2" stroke-linecap="round" stroke-linejoin="round"/><circle cx="861.62" cy="780.72" r="4.212" fill="#5E1A2C" stroke="none" stroke-width="2" stroke-linecap="round" stroke-linejoin="round"/><circle cx="829.47" cy="859.31" r="4.212" fill="#5E1A2C" stroke="none" stroke-width="2" stroke-linecap="round" stroke-linejoin="round"/><circle cx="769.69" cy="919.62" r="4.212" fill="#5E1A2C" stroke="none" stroke-width="2" stroke-linecap="round" stroke-linejoin="round"/><circle cx="691.39" cy="952.45" r="4.212" fill="#5E1A2C" stroke="none" stroke-width="2" stroke-linecap="round" stroke-linejoin="round"/><circle cx="606.48" cy="952.82" r="4.212" fill="#5E1A2C" stroke="none" stroke-width="2" stroke-linecap="round" stroke-linejoin="round"/><circle cx="527.89" cy="920.67" r="4.212" fill="#5E1A2C" stroke="none" stroke-width="2" stroke-linecap="round" stroke-linejoin="round"/><circle cx="467.58" cy="860.89" r="4.212" fill="#5E1A2C" stroke="none" stroke-width="2" stroke-linecap="round" stroke-linejoin="round"/><circle cx="434.75" cy="782.59" r="4.212" fill="#5E1A2C" stroke="none" stroke-width="2" stroke-linecap="round" stroke-linejoin="round"/><circle cx="434.38" cy="697.68" r="4.212" fill="#5E1A2C" stroke="none" stroke-width="2" stroke-linecap="round" stroke-linejoin="round"/><circle cx="466.53" cy="619.09" r="4.212" fill="#5E1A2C" stroke="none" stroke-width="2" stroke-linecap="round" stroke-linejoin="round"/><circle cx="526.31" cy="558.78" r="4.212" fill="#5E1A2C" stroke="none" stroke-width="2" stroke-linecap="round" stroke-linejoin="round"/><circle cx="604.61" cy="525.95" r="4.212" fill="#5E1A2C" stroke="none" stroke-width="2" stroke-linecap="round" stroke-linejoin="round"/><path d="M 0,-224.64 C 25.74,-245.93 23.17,-270.04 0,-285.48 C -23.17,-270.04 -25.74,-245.93 0,-224.64 Z" transform="translate(648.0,739.2) rotate(11.00)" fill="none" stroke="#5E1A2C" stroke-width="1.4" stroke-linecap="round" stroke-linejoin="round"/><path d="M 0,-224.64 C 25.74,-245.93 23.17,-270.04 0,-285.48 C -23.17,-270.04 -25.74,-245.93 0,-224.64 Z" transform="translate(648.0,739.2) rotate(33.50)" fill="none" stroke="#5E1A2C" stroke-width="1.4" stroke-linecap="round" stroke-linejoin="round"/><path d="M 0,-224.64 C 25.74,-245.93 23.17,-270.04 0,-285.48 C -23.17,-270.04 -25.74,-245.93 0,-224.64 Z" transform="translate(648.0,739.2) rotate(56.00)" fill="none" stroke="#5E1A2C" stroke-width="1.4" stroke-linecap="round" stroke-linejoin="round"/><path d="M 0,-224.64 C 25.74,-245.93 23.17,-270.04 0,-285.48 C -23.17,-270.04 -25.74,-245.93 0,-224.64 Z" transform="translate(648.0,739.2) rotate(78.50)" fill="none" stroke="#5E1A2C" stroke-width="1.4" stroke-linecap="round" stroke-linejoin="round"/><path d="M 0,-224.64 C 25.74,-245.93 23.17,-270.04 0,-285.48 C -23.17,-270.04 -25.74,-245.93 0,-224.64 Z" transform="translate(648.0,739.2) rotate(101.00)" fill="none" stroke="#5E1A2C" stroke-width="1.4" stroke-linecap="round" stroke-linejoin="round"/><path d="M 0,-224.64 C 25.74,-245.93 23.17,-270.04 0,-285.48 C -23.17,-270.04 -25.74,-245.93 0,-224.64 Z" transform="translate(648.0,739.2) rotate(123.50)" fill="none" stroke="#5E1A2C" stroke-width="1.4" stroke-linecap="round" stroke-linejoin="round"/><path d="M 0,-224.64 C 25.74,-245.93 23.17,-270.04 0,-285.48 C -23.17,-270.04 -25.74,-245.93 0,-224.64 Z" transform="translate(648.0,739.2) rotate(146.00)" fill="none" stroke="#5E1A2C" stroke-width="1.4" stroke-linecap="round" stroke-linejoin="round"/><path d="M 0,-224.64 C 25.74,-245.93 23.17,-270.04 0,-285.48 C -23.17,-270.04 -25.74,-245.93 0,-224.64 Z" transform="translate(648.0,739.2) rotate(168.50)" fill="none" stroke="#5E1A2C" stroke-width="1.4" stroke-linecap="round" stroke-linejoin="round"/><path d="M 0,-224.64 C 25.74,-245.93 23.17,-270.04 0,-285.48 C -23.17,-270.04 -25.74,-245.93 0,-224.64 Z" transform="translate(648.0,739.2) rotate(191.00)" fill="none" stroke="#5E1A2C" stroke-width="1.4" stroke-linecap="round" stroke-linejoin="round"/><path d="M 0,-224.64 C 25.74,-245.93 23.17,-270.04 0,-285.48 C -23.17,-270.04 -25.74,-245.93 0,-224.64 Z" transform="translate(648.0,739.2) rotate(213.50)" fill="none" stroke="#5E1A2C" stroke-width="1.4" stroke-linecap="round" stroke-linejoin="round"/><path d="M 0,-224.64 C 25.74,-245.93 23.17,-270.04 0,-285.48 C -23.17,-270.04 -25.74,-245.93 0,-224.64 Z" transform="translate(648.0,739.2) rotate(236.00)" fill="none" stroke="#5E1A2C" stroke-width="1.4" stroke-linecap="round" stroke-linejoin="round"/><path d="M 0,-224.64 C 25.74,-245.93 23.17,-270.04 0,-285.48 C -23.17,-270.04 -25.74,-245.93 0,-224.64 Z" transform="translate(648.0,739.2) rotate(258.50)" fill="none" stroke="#5E1A2C" stroke-width="1.4" stroke-linecap="round" stroke-linejoin="round"/><path d="M 0,-224.64 C 25.74,-245.93 23.17,-270.04 0,-285.48 C -23.17,-270.04 -25.74,-245.93 0,-224.64 Z" transform="translate(648.0,739.2) rotate(281.00)" fill="none" stroke="#5E1A2C" stroke-width="1.4" stroke-linecap="round" stroke-linejoin="round"/><path d="M 0,-224.64 C 25.74,-245.93 23.17,-270.04 0,-285.48 C -23.17,-270.04 -25.74,-245.93 0,-224.64 Z" transform="translate(648.0,739.2) rotate(303.50)" fill="none" stroke="#5E1A2C" stroke-width="1.4" stroke-linecap="round" stroke-linejoin="round"/><path d="M 0,-224.64 C 25.74,-245.93 23.17,-270.04 0,-285.48 C -23.17,-270.04 -25.74,-245.93 0,-224.64 Z" transform="translate(648.0,739.2) rotate(326.00)" fill="none" stroke="#5E1A2C" stroke-width="1.4" stroke-linecap="round" stroke-linejoin="round"/><path d="M 0,-224.64 C 25.74,-245.93 23.17,-270.04 0,-285.48 C -23.17,-270.04 -25.74,-245.93 0,-224.64 Z" transform="translate(648.0,739.2) rotate(348.50)" fill="none" stroke="#5E1A2C" stroke-width="1.4" stroke-linecap="round" stroke-linejoin="round"/></g><g transform="translate(45.0,1030.4) rotate(0)"><path d="M 0.0,0.0 L 20.2,3.1 L 40.5,6.1 L 60.8,8.9 L 81.0,11.5 L 101.2,13.7 L 121.5,15.5 L 141.8,16.8 L 162.0,17.7 L 182.2,18.0 L 202.5,17.8 L 222.8,17.0 L 243.0,15.8 L 263.2,14.0 L 283.5,11.9 L 303.8,9.4 L 324.0,6.6 L 344.2,3.7 L 364.5,0.6 L 384.8,-2.5 L 405.0,-5.6 L 425.2,-8.4 L 445.5,-11.0 L 465.7,-13.3 L 486.0,-15.2 L 506.2,-16.6 L 526.5,-17.6 L 546.8,-18.0 L 567.0,-17.9 L 587.2,-17.2 L 607.5,-16.0 L 627.8,-14.4 L 648.0,-12.3 L 668.2,-9.9 L 688.5,-7.1 L 708.8,-4.2 L 729.0,-1.1 L 749.2,2.0 L 769.5,5.0 L 789.8,7.9 L 810.0,10.6" fill="none" stroke="#5E1A2C" stroke-width="1.6" stroke-linecap="round" stroke-linejoin="round"/><path d="M 0,-3 C 7,-7.20 6.30,-10.80 0,-15 C -6.30,-10.80 -7,-7.20 0,-3 Z" transform="translate(57.857142857142854,8.529635924513977) rotate(62.00)" fill="none" stroke="#5E1A2C" stroke-width="1.3" stroke-linecap="round" stroke-linejoin="round"/><circle cx="57.9" cy="8.5" r="2" fill="#5E1A2C" stroke="none"/><path d="M 0,-3 C 7,-7.20 6.30,-10.80 0,-15 C -6.30,-10.80 -7,-7.20 0,-3 Z" transform="translate(173.57142857142856,17.9275372919143) rotate(-62.00)" fill="none" stroke="#5E1A2C" stroke-width="1.3" stroke-linecap="round" stroke-linejoin="round"/><circle cx="173.6" cy="17.9" r="2" fill="#5E1A2C" stroke="none"/><path d="M 0,-3 C 7,-7.20 6.30,-10.80 0,-15 C -6.30,-10.80 -7,-7.20 0,-3 Z" transform="translate(289.2857142857143,11.222816433457204) rotate(62.00)" fill="none" stroke="#5E1A2C" stroke-width="1.3" stroke-linecap="round" stroke-linejoin="round"/><circle cx="289.3" cy="11.2" r="2" fill="#5E1A2C" stroke="none"/><path d="M 0,-3 C 7,-7.20 6.30,-10.80 0,-15 C -6.30,-10.80 -7,-7.20 0,-3 Z" transform="translate(405.0,-5.5623058987490595) rotate(-62.00)" fill="none" stroke="#5E1A2C" stroke-width="1.3" stroke-linecap="round" stroke-linejoin="round"/><circle cx="405.0" cy="-5.6" r="2" fill="#5E1A2C" stroke="none"/><path d="M 0,-3 C 7,-7.20 6.30,-10.80 0,-15 C -6.30,-10.80 -7,-7.20 0,-3 Z" transform="translate(520.7142857142858,-17.351331492525357) rotate(62.00)" fill="none" stroke="#5E1A2C" stroke-width="1.3" stroke-linecap="round" stroke-linejoin="round"/><circle cx="520.7" cy="-17.4" r="2" fill="#5E1A2C" stroke="none"/><path d="M 0,-3 C 7,-7.20 6.30,-10.80 0,-15 C -6.30,-10.80 -7,-7.20 0,-3 Z" transform="translate(636.4285714285714,-13.555286388065) rotate(-62.00)" fill="none" stroke="#5E1A2C" stroke-width="1.3" stroke-linecap="round" stroke-linejoin="round"/><circle cx="636.4" cy="-13.6" r="2" fill="#5E1A2C" stroke="none"/><path d="M 0,-3 C 7,-7.20 6.30,-10.80 0,-15 C -6.30,-10.80 -7,-7.20 0,-3 Z" transform="translate(752.1428571428572,2.41619878471781) rotate(62.00)" fill="none" stroke="#5E1A2C" stroke-width="1.3" stroke-linecap="round" stroke-linejoin="round"/><circle cx="752.1" cy="2.4" r="2" fill="#5E1A2C" stroke="none"/></g><rect x="20" y="20" width="860" height="1080" rx="6" fill="none" stroke="#B08A4A" stroke-width="2" stroke-opacity=".45"/></svg>