<svg xmlns="http://www.w3.org/2000/svg" viewBox="0 0 900 900" width="900" height="900" role="img" aria-label="Arabic mehndi design placeholder"><title>Arabic mehndi design placeholder</title><defs>
<radialGradient id="bgg7" cx="50%" cy="42%" r="78%">
<stop offset="0%" stop-color="#EFE3D4"/><stop offset="100%" stop-color="#E5D3BE"/>
</radialGradient>
<filter id="graing7" x="0" y="0" width="100%" height="100%">
<feTurbulence type="fractalNoise" baseFrequency="0.9" numOctaves="3" result="n"/>
<feColorMatrix type="saturate" values="0"/>
<feComponentTransfer><feFuncA type="linear" slope="0.12"/></feComponentTransfer>
<feBlend in2="SourceGraphic" mode="multiply"/>
</filter>
</defs>
<rect width="900" height="900" fill="url(#bgg7)"/>
<rect width="900" height="900" filter="url(#graing7)" opacity=".5" fill="#EFE3D4"/><g><circle cx="270.0" cy="270.0" r="19.80" fill="#B08A4A" stroke="#B08A4A" stroke-width="2" stroke-linecap="round" stroke-linejoin="round" fill-opacity="0.9"/><path d="M 0,-23.759999999999998 Q 16.830000000000002,-41.58 0,-59.4 Q -16.830000000000002,-41.58 0,-23.759999999999998 Z" transform="translate(270.0,270.0) rotate(22.00)" fill="none" stroke="#5E1A2C" stroke-width="1.6" stroke-linecap="round" stroke-linejoin="round"/><path d="M 0,-23.759999999999998 Q 16.830000000000002,-41.58 0,-59.4 Q -16.830000000000002,-41.58 0,-23.759999999999998 Z" transform="translate(270.0,270.0) rotate(67.00)" fill="none" stroke="#5E1A2C" stroke-width="1.6" stroke-linecap="round" stroke-linejoin="round"/><path d="M 0,-23.759999999999998 Q 16.830000000000002,-41.58 0,-59.4 Q -16.830000000000002,-41.58 0,-23.759999999999998 Z" transform="translate(270.0,270.0) rotate(112.00)" fill="none" stroke="#5E1A2C" stroke-width="1.6" stroke-linecap="round" stroke-linejoin="round"/><path d="M 0,-23.759999999999998 Q 16.830000000000002,-41.58 0,-59.4 Q -16.830000000000002,-41.58 0,-23.759999999999998 Z" transform="translate(270.0,270.0) rotate(157.00)" fill="none" stroke="#5E1A2C" stroke-width="1.6" stroke-linecap="round" stroke-linejoin="round"/><path d="M 0,-23.759999999999998 Q 16.830000000000002,-41.58 0,-59.4 Q -16.830000000000002,-41.58 0,-23.759999999999998 Z" transform="translate(270.0,270.0) rotate(202.00)" fill="none" stroke="#5E1A2C" stroke-width="1.6" stroke-linecap="round" stroke-linejoin="round"/><path d="M 0,-23.759999999999998 Q 16.830000000000002,-41.58 0,-59.4 Q -16.830000000000002,-41.58 0,-23.759999999999998 Z" transform="translate(270.0,270.0) rotate(247.00)" fill="none" stroke="#5E1A2C" stroke-width="1.6" stroke-linecap="round" stroke-linejoin="round"/><path d="M 0,-23.759999999999998 Q 16.830000000000002,-41.58 0,-59.4 Q -16.830000000000002,-41.58 0,-23.759999999999998 Z" transform="translate(270.0,270.0) rotate(292.00)" fill="none" stroke="#5E1A2C" stroke-width="1.6" stroke-linecap="round" stroke-linejoin="round"/><path d="M 0,-23.759999999999998 Q 16.830000000000002,-41.58 0,-59.4 Q -16.830000000000002,-41.58 0,-23.759999999999998 Z" transform="translate(270.0,270.0) rotate(337.00)" fill="none" stroke="#5E1A2C" stroke-width="1.6" stroke-linecap="round" stroke-linejoin="round"/><circle cx="287.94" cy="203.06" r="3.168" fill="#5E1A2C" stroke="none" stroke-width="2" stroke-linecap="round" stroke-linejoin="round"/><circle cx="319.00" cy="221.00" r="3.168" fill="#5E1A2C" stroke="none" stroke-width="2" stroke-linecap="round" stroke-linejoin="round"/><circle cx="336.94" cy="252.06" r="3.168" fill="#5E1A2C" stroke="none" stroke-width="2" stroke-linecap="round" stroke-linejoin="round"/><circle cx="336.94" cy="287.94" r="3.168" fill="#5E1A2C" stroke="none" stroke-width="2" stroke-linecap="round" stroke-linejoin="round"/><circle cx="319.00" cy="319.00" r="3.168" fill="#5E1A2C" stroke="none" stroke-width="2" stroke-linecap="round" stroke-linejoin="round"/><circle cx="287.94" cy="336.94" r="3.168" fill="#5E1A2C" stroke="none" stroke-width="2" stroke-linecap="round" stroke-linejoin="round"/><circle cx="252.06" cy="336.94" r="3.168" fill="#5E1A2C" stroke="none" stroke-width="2" stroke-linecap="round" stroke-linejoin="round"/><circle cx="221.00" cy="319.00" r="3.168" fill="#5E1A2C" stroke="none" stroke-width="2" stroke-linecap="round" stroke-linejoin="round"/><circle cx="203.06" cy="287.94" r="3.168" fill="#5E1A2C" stroke="none" stroke-width="2" stroke-linecap="round" stroke-linejoin="round"/><circle cx="203.06" cy="252.06" r="3.168" fill="#5E1A2C" stroke="none" stroke-width="2" stroke-linecap="round" stroke-linejoin="round"/><circle cx="221.00" cy="221.00" r="3.168" fill="#5E1A2C" stroke="none" stroke-width="2" stroke-linecap="round" stroke-linejoin="round"/><circle cx="252.06" cy="203.06" r="3.168" fill="#5E1A2C" stroke="none" stroke-width="2" stroke-linecap="round" stroke-linejoin="round"/><circle cx="270.0" cy="270.0" r="83.16" fill="none" stroke="#5E1A2C" stroke-width="1.2" stroke-linecap="round" stroke-linejoin="round" stroke-opacity="0.7"/><path d="M 0,-87.12 Q 19.8,-112.86 0,-138.6 Q -19.8,-112.86 0,-87.12 Z" transform="translate(270.0,270.0) rotate(0.00)" fill="none" stroke="#5E1A2C" stroke-width="1.5" stroke-linecap="round" stroke-linejoin="round"/><path d="M 0,-87.12 Q 19.8,-112.86 0,-138.6 Q -19.8,-112.86 0,-87.12 Z" transform="translate(270.0,270.0) rotate(30.00)" fill="none" stroke="#5E1A2C" stroke-width="1.5" stroke-linecap="round" stroke-linejoin="round"/><path d="M 0,-87.12 Q 19.8,-112.86 0,-138.6 Q -19.8,-112.86 0,-87.12 Z" transform="translate(270.0,270.0) rotate(60.00)" fill="none" stroke="#5E1A2C" stroke-width="1.5" stroke-linecap="round" stroke-linejoin="round"/><path d="M 0,-87.12 Q 19.8,-112.86 0,-138.6 Q -19.8,-112.86 0,-87.12 Z" transform="translate(270.0,270.0) rotate(90.00)" fill="none" stroke="#5E1A2C" stroke-width="1.5" stroke-linecap="round" stroke-linejoin="round"/><path d="M 0,-87.12 Q 19.8,-112.86 0,-138.6 Q -19.8,-112.86 0,-87.12 Z" transform="translate(270.0,270.0) rotate(120.00)" fill="none" stroke="#5E1A2C" stroke-width="1.5" stroke-linecap="round" stroke-linejoin="round"/><path d="M 0,-87.12 Q 19.8,-112.86 0,-138.6 Q -19.8,-112.86 0,-87.12 Z" transform="translate(270.0,270.0) rotate(150.00)" fill="none" stroke="#5E1A2C" stroke-width="1.5" stroke-linecap="round" stroke-linejoin="round"/><path d="M 0,-87.12 Q 19.8,-112.86 0,-138.6 Q -19.8,-112.86 0,-87.12 Z" transform="translate(270.0,270.0) rotate(180.00)" fill="none" stroke="#5E1A2C" stroke-width="1.5" stroke-linecap="round" stroke-linejoin="round"/><path d="M 0,-87.12 Q 19.8,-112.86 0,-138.6 Q -19.8,-112.86 0,-87.12 Z" transform="translate(270.0,270.0) rotate(210.00)" fill="none" stroke="#5E1A2C" stroke-width="1.5" stroke-linecap="round" stroke-linejoin="round"/><path d="M 0,-87.12 Q 19.8,-112.86 0,-138.6 Q -19.8,-112.86 0,-87.12 Z" transform="translate(270.0,270.0) rotate(240.00)" fill="none" stroke="#5E1A2C" stroke-width="1.5" stroke-linecap="round" stroke-linejoin="round"/><path d="M 0,-87.12 Q 19.8,-112.86 0,-138.6 Q -19.8,-112.86 0,-87.12 Z" transform="translate(270.0,270.0) rotate(270.00)" fill="none" stroke="#5E1A2C" stroke-width="1.5" stroke-linecap="round" stroke-linejoin="round"/><path d="M 0,-87.12 Q 19.8,-112.86 0,-138.6 Q -19.8,-112.86 0,-87.12 Z" transform="translate(270.0,270.0) rotate(300.00)" fill="none" stroke="#5E1A2C" stroke-width="1.5" stroke-linecap="round" stroke-linejoin="round"/><path d="M 0,-87.12 Q 19.8,-112.86 0,-138.6 Q -19.8,-112.86 0,-87.12 Z" transform="translate(270.0,270.0) rotate(330.00)" fill="none" stroke="#5E1A2C" stroke-width="1.5" stroke-linecap="round" stroke-linejoin="round"/><circle cx="299.72" cy="159.07" r="4.356" fill="#B08A4A" stroke="none" stroke-width="2" stroke-linecap="round" stroke-linejoin="round"/><circle cx="351.20" cy="188.80" r="4.356" fill="#B08A4A" stroke="none" stroke-width="2" stroke-linecap="round" stroke-linejoin="round"/><circle cx="380.93" cy="240.28" r="4.356" fill="#B08A4A" stroke="none" stroke-width="2" stroke-linecap="round" stroke-linejoin="round"/><circle cx="380.93" cy="299.72" r="4.356" fill="#B08A4A" stroke="none" stroke-width="2" stroke-linecap="round" stroke-linejoin="round"/><circle cx="351.20" cy="351.20" r="4.356" fill="#B08A4A" stroke="none" stroke-width="2" stroke-linecap="round" stroke-linejoin="round"/><circle cx="299.72" cy="380.93" r="4.356" fill="#B08A4A" stroke="none" stroke-width="2" stroke-linecap="round" stroke-linejoin="round"/><circle cx="240.28" cy="380.93" r="4.356" fill="#B08A4A" stroke="none" stroke-width="2" stroke-linecap="round" stroke-linejoin="round"/><circle cx="188.80" cy="351.20" r="4.356" fill="#B08A4A" stroke="none" stroke-width="2" stroke-linecap="round" stroke-linejoin="round"/><circle cx="159.07" cy="299.72" r="4.356" fill="#B08A4A" stroke="none" stroke-width="2" stroke-linecap="round" stroke-linejoin="round"/><circle cx="159.07" cy="240.28" r="4.356" fill="#B08A4A" stroke="none" stroke-width="2" stroke-linecap="round" stroke-linejoin="round"/><circle cx="188.80" cy="188.80" r="4.356" fill="#B08A4A" stroke="none" stroke-width="2" stroke-linecap="round" stroke-linejoin="round"/><circle cx="240.28" cy="159.07" r="4.356" fill="#B08A4A" stroke="none" stroke-width="2" stroke-linecap="round" stroke-linejoin="round"/><circle cx="270.0" cy="270.0" r="146.52" fill="none" stroke="#5E1A2C" stroke-width="1.1" stroke-linecap="round" stroke-linejoin="round" stroke-opacity="0.6"/><path d="M 270.00,123.48 A 168.30,168.30 0 0 1 326.07,134.63" fill="none" stroke="#5E1A2C" stroke-width="1.4" stroke-linecap="round" stroke-linejoin="round"/><path d="M 326.07,134.63 A 168.30,168.30 0 0 1 373.61,166.39" fill="none" stroke="#5E1A2C" stroke-width="1.4" stroke-linecap="round" stroke-linejoin="round"/><path d="M 373.61,166.39 A 168.30,168.30 0 0 1 405.37,213.93" fill="none" stroke="#5E1A2C" stroke-width="1.4" stroke-linecap="round" stroke-linejoin="round"/><path d="M 405.37,213.93 A 168.30,168.30 0 0 1 416.52,270.00" fill="none" stroke="#5E1A2C" stroke-width="1.4" stroke-linecap="round" stroke-linejoin="round"/><path d="M 416.52,270.00 A 168.30,168.30 0 0 1 405.37,326.07" fill="none" stroke="#5E1A2C" stroke-width="1.4" stroke-linecap="round" stroke-linejoin="round"/><path d="M 405.37,326.07 A 168.30,168.30 0 0 1 373.61,373.61" fill="none" stroke="#5E1A2C" stroke-width="1.4" stroke-linecap="round" stroke-linejoin="round"/><path d="M 373.61,373.61 A 168.30,168.30 0 0 1 326.07,405.37" fill="none" stroke="#5E1A2C" stroke-width="1.4" stroke-linecap="round" stroke-linejoin="round"/><path d="M 326.07,405.37 A 168.30,168.30 0 0 1 270.00,416.52" fill="none" stroke="#5E1A2C" stroke-width="1.4" stroke-linecap="round" stroke-linejoin="round"/><path d="M 270.00,416.52 A 168.30,168.30 0 0 1 213.93,405.37" fill="none" stroke="#5E1A2C" stroke-width="1.4" stroke-linecap="round" stroke-linejoin="round"/><path d="M 213.93,405.37 A 168.30,168.30 0 0 1 166.39,373.61" fill="none" stroke="#5E1A2C" stroke-width="1.4" stroke-linecap="round" stroke-linejoin="round"/><path d="M 166.39,373.61 A 168.30,168.30 0 0 1 134.63,326.07" fill="none" stroke="#5E1A2C" stroke-width="1.4" stroke-linecap="round" stroke-linejoin="round"/><path d="M 134.63,326.07 A 168.30,168.30 0 0 1 123.48,270.00" fill="none" stroke="#5E1A2C" stroke-width="1.4" stroke-linecap="round" stroke-linejoin="round"/><path d="M 123.48,270.00 A 168.30,168.30 0 0 1 134.63,213.93" fill="none" stroke="#5E1A2C" stroke-width="1.4" stroke-linecap="round" stroke-linejoin="round"/><path d="M 134.63,213.93 A 168.30,168.30 0 0 1 166.39,166.39" fill="none" stroke="#5E1A2C" stroke-width="1.4" stroke-linecap="round" stroke-linejoin="round"/><path d="M 166.39,166.39 A 168.30,168.30 0 0 1 213.93,134.63" fill="none" stroke="#5E1A2C" stroke-width="1.4" stroke-linecap="round" stroke-linejoin="round"/><path d="M 213.93,134.63 A 168.30,168.30 0 0 1 270.00,123.48" fill="none" stroke="#5E1A2C" stroke-width="1.4" stroke-linecap="round" stroke-linejoin="round"/><circle cx="305.14" cy="89.24" r="3.5639999999999996" fill="#5E1A2C" stroke="none" stroke-width="2" stroke-linecap="round" stroke-linejoin="round"/><circle cx="371.63" cy="116.45" r="3.5639999999999996" fill="#5E1A2C" stroke="none" stroke-width="2" stroke-linecap="round" stroke-linejoin="round"/><circle cx="422.66" cy="167.03" r="3.5639999999999996" fill="#5E1A2C" stroke="none" stroke-width="2" stroke-linecap="round" stroke-linejoin="round"/><circle cx="450.44" cy="233.29" r="3.5639999999999996" fill="#5E1A2C" stroke="none" stroke-width="2" stroke-linecap="round" stroke-linejoin="round"/><circle cx="450.76" cy="305.14" r="3.5639999999999996" fill="#5E1A2C" stroke="none" stroke-width="2" stroke-linecap="round" stroke-linejoin="round"/><circle cx="423.55" cy="371.63" r="3.5639999999999996" fill="#5E1A2C" stroke="none" stroke-width="2" stroke-linecap="round" stroke-linejoin="round"/><circle cx="372.97" cy="422.66" r="3.5639999999999996" fill="#5E1A2C" stroke="none" stroke-width="2" stroke-linecap="round" stroke-linejoin="round"/><circle cx="306.71" cy="450.44" r="3.5639999999999996" fill="#5E1A2C" stroke="none" stroke-width="2" stroke-linecap="round" stroke-linejoin="round"/><circle cx="234.86" cy="450.76" r="3.5639999999999996" fill="#5E1A2C" stroke="none" stroke-width="2" stroke-linecap="round" stroke-linejoin="round"/><circle cx="168.37" cy="423.55" r="3.5639999999999996" fill="#5E1A2C" stroke="none" stroke-width="2" stroke-linecap="round" stroke-linejoin="round"/><circle cx="117.34" cy="372.97" r="3.5639999999999996" fill="#5E1A2C" stroke="none" stroke-width="2" stroke-linecap="round" stroke-linejoin="round"/><circle cx="89.56" cy="306.71" r="3.5639999999999996" fill="#5E1A2C" stroke="none" stroke-width="2" stroke-linecap="round" stroke-linejoin="round"/><circle cx="89.24" cy="234.86" r="3.5639999999999996" fill="#5E1A2C" stroke="none" stroke-width="2" stroke-linecap="round" stroke-linejoin="round"/><circle cx="116.45" cy="168.37" r="3.5639999999999996" fill="#5E1A2C" stroke="none" stroke-width="2" stroke-linecap="round" stroke-linejoin="round"/><circle cx="167.03" cy="117.34" r="3.5639999999999996" fill="#5E1A2C" stroke="none" stroke-width="2" stroke-linecap="round" stroke-linejoin="round"/><circle cx="233.29" cy="89.56" r="3.5639999999999996" fill="#5E1A2C" stroke="none" stroke-width="2" stroke-linecap="round" stroke-linejoin="round"/><path d="M 0,-190.07999999999998 C 21.78,-208.10 19.60,-228.49 0,-241.56 C -19.60,-228.49 -21.78,-208.10 0,-190.07999999999998 Z" transform="translate(270.0,270.0) rotate(11.00)" fill="none" stroke="#5E1A2C" stroke-width="1.4" stroke-linecap="round" stroke-linejoin="round"/><path d="M 0,-190.07999999999998 C 21.78,-208.10 19.60,-228.49 0,-241.56 C -19.60,-228.49 -21.78,-208.10 0,-190.07999999999998 Z" transform="translate(270.0,270.0) rotate(33.50)" fill="none" stroke="#5E1A2C" stroke-width="1.4" stroke-linecap="round" stroke-linejoin="round"/><path d="M 0,-190.07999999999998 C 21.78,-208.10 19.60,-228.49 0,-241.56 C -19.60,-228.49 -21.78,-208.10 0,-190.07999999999998 Z" transform="translate(270.0,270.0) rotate(56.00)" fill="none" stroke="#5E1A2C" stroke-width="1.4" stroke-linecap="round" stroke-linejoin="round"/><path d="M 0,-190.07999999999998 C 21.78,-208.10 19.60,-228.49 0,-241.56 C -19.60,-228.49 -21.78,-208.10 0,-190.07999999999998 Z" transform="translate(270.0,270.0) rotate(78.50)" fill="none" stroke="#5E1A2C" stroke-width="1.4" stroke-linecap="round" stroke-linejoin="round"/><path d="M 0,-190.07999999999998 C 21.78,-208.10 19.60,-228.49 0,-241.56 C -19.60,-228.49 -21.78,-208.10 0,-190.07999999999998 Z" transform="translate(270.0,270.0) rotate(101.00)" fill="none" stroke="#5E1A2C" stroke-width="1.4" stroke-linecap="round" stroke-linejoin="round"/><path d="M 0,-190.07999999999998 C 21.78,-208.10 19.60,-228.49 0,-241.56 C -19.60,-228.49 -21.78,-208.10 0,-190.07999999999998 Z" transform="translate(270.0,270.0) rotate(123.50)" fill="none" stroke="#5E1A2C" stroke-width="1.4" stroke-linecap="round" stroke-linejoin="round"/><path d="M 0,-190.07999999999998 C 21.78,-208.10 19.60,-228.49 0,-241.56 C -19.60,-228.49 -21.78,-208.10 0,-190.07999999999998 Z" transform="translate(270.0,270.0) rotate(146.00)" fill="none" stroke="#5E1A2C" stroke-width="1.4" stroke-linecap="round" stroke-linejoin="round"/><path d="M 0,-190.07999999999998 C 21.78,-208.10 19.60,-228.49 0,-241.56 C -19.60,-228.49 -21.78,-208.10 0,-190.07999999999998 Z" transform="translate(270.0,270.0) rotate(168.50)" fill="none" stroke="#5E1A2C" stroke-width="1.4" stroke-linecap="round" stroke-linejoin="round"/><path d="M 0,-190.07999999999998 C 21.78,-208.10 19.60,-228.49 0,-241.56 C -19.60,-228.49 -21.78,-208.10 0,-190.07999999999998 Z" transform="translate(270.0,270.0) rotate(191.00)" fill="none" stroke="#5E1A2C" stroke-width="1.4" stroke-linecap="round" stroke-linejoin="round"/><path d="M 0,-190.07999999999998 C 21.78,-208.10 19.60,-228.49 0,-241.56 C -19.60,-228.49 -21.78,-208.10 0,-190.07999999999998 Z" transform="translate(270.0,270.0) rotate(213.50)" fill="none" stroke="#5E1A2C" stroke-width="1.4" stroke-linecap="round" stroke-linejoin="round"/><path d="M 0,-190.07999999999998 C 21.78,-208.10 19.60,-228.49 0,-241.56 C -19.60,-228.49 -21.78,-208.10 0,-190.07999999999998 Z" transform="translate(270.0,270.0) rotate(236.00)" fill="none" stroke="#5E1A2C" stroke-width="1.4" stroke-linecap="round" stroke-linejoin="round"/><path d="M 0,-190.07999999999998 C 21.78,-208.10 19.60,-228.49 0,-241.56 C -19.60,-228.49 -21.78,-208.10 0,-190.07999999999998 Z" transform="translate(270.0,270.0) rotate(258.50)" fill="none" stroke="#5E1A2C" stroke-width="1.4" stroke-linecap="round" stroke-linejoin="round"/><path d="M 0,-190.07999999999998 C 21.78,-208.10 19.60,-228.49 0,-241.56 C -19.60,-228.49 -21.78,-208.10 0,-190.07999999999998 Z" transform="translate(270.0,270.0) rotate(281.00)" fill="none" stroke="#5E1A2C" stroke-width="1.4" stroke-linecap="round" stroke-linejoin="round"/><path d="M 0,-190.07999999999998 C 21.78,-208.10 19.60,-228.49 0,-241.56 C -19.60,-228.49 -21.78,-208.10 0,-190.07999999999998 Z" transform="translate(270.0,270.0) rotate(303.50)" fill="none" stroke="#5E1A2C" stroke-width="1.4" stroke-linecap="round" stroke-linejoin="round"/><path d="M 0,-190.07999999999998 C 21.78,-208.10 19.60,-228.49 0,-241.56 C -19.60,-228.49 -21.78,-208.10 0,-190.07999999999998 Z" transform="translate(270.0,270.0) rotate(326.00)" fill="none" stroke="#5E1A2C" stroke-width="1.4" stroke-linecap="round" stroke-linejoin="round"/><path d="M 0,-190.07999999999998 C 21.78,-208.10 19.60,-228.49 0,-241.56 C -19.60,-228.49 -21.78,-208.10 0,-190.07999999999998 Z" transform="translate(270.0,270.0) rotate(348.50)" fill="none" stroke="#5E1A2C" stroke-width="1.4" stroke-linecap="round" stroke-linejoin="round"/></g><g><circle cx="648.0" cy="594.0" r="23.40" fill="#B08A4A" stroke="#B08A4A" stroke-width="2" stroke-linecap="round" stroke-linejoin="round" fill-opacity="0.9"/><path d="M 0,-28.08 Q 19.89,-49.14 0,-70.2 Q -19.89,-49.14 0,-28.08 Z" transform="translate(648.0,594.0) rotate(22.00)" fill="none" stroke="#5E1A2C" stroke-width="1.6" stroke-linecap="round" stroke-linejoin="round"/><path d="M 0,-28.08 Q 19.89,-49.14 0,-70.2 Q -19.89,-49.14 0,-28.08 Z" transform="translate(648.0,594.0) rotate(67.00)" fill="none" stroke="#5E1A2C" stroke-width="1.6" stroke-linecap="round" stroke-linejoin="round"/><path d="M 0,-28.08 Q 19.89,-49.14 0,-70.2 Q -19.89,-49.14 0,-28.08 Z" transform="translate(648.0,594.0) rotate(112.00)" fill="none" stroke="#5E1A2C" stroke-width="1.6" stroke-linecap="round" stroke-linejoin="round"/><path d="M 0,-28.08 Q 19.89,-49.14 0,-70.2 Q -19.89,-49.14 0,-28.08 Z" transform="translate(648.0,594.0) rotate(157.00)" fill="none" stroke="#5E1A2C" stroke-width="1.6" stroke-linecap="round" stroke-linejoin="round"/><path d="M 0,-28.08 Q 19.89,-49.14 0,-70.2 Q -19.89,-49.14 0,-28.08 Z" transform="translate(648.0,594.0) rotate(202.00)" fill="none" stroke="#5E1A2C" stroke-width="1.6" stroke-linecap="round" stroke-linejoin="round"/><path d="M 0,-28.08 Q 19.89,-49.14 0,-70.2 Q -19.89,-49.14 0,-28.08 Z" transform="translate(648.0,594.0) rotate(247.00)" fill="none" stroke="#5E1A2C" stroke-width="1.6" stroke-linecap="round" stroke-linejoin="round"/><path d="M 0,-28.08 Q 19.89,-49.14 0,-70.2 Q -19.89,-49.14 0,-28.08 Z" transform="translate(648.0,594.0) rotate(292.00)" fill="none" stroke="#5E1A2C" stroke-width="1.6" stroke-linecap="round" stroke-linejoin="round"/><path d="M 0,-28.08 Q 19.89,-49.14 0,-70.2 Q -19.89,-49.14 0,-28.08 Z" transform="translate(648.0,594.0) rotate(337.00)" fill="none" stroke="#5E1A2C" stroke-width="1.6" stroke-linecap="round" stroke-linejoin="round"/><circle cx="669.20" cy="514.89" r="3.744" fill="#5E1A2C" stroke="none" stroke-width="2" stroke-linecap="round" stroke-linejoin="round"/><circle cx="705.91" cy="536.09" r="3.744" fill="#5E1A2C" stroke="none" stroke-width="2" stroke-linecap="round" stroke-linejoin="round"/><circle cx="727.11" cy="572.80" r="3.744" fill="#5E1A2C" stroke="none" stroke-width="2" stroke-linecap="round" stroke-linejoin="round"/><circle cx="727.11" cy="615.20" r="3.744" fill="#5E1A2C" stroke="none" stroke-width="2" stroke-linecap="round" stroke-linejoin="round"/><circle cx="705.91" cy="651.91" r="3.744" fill="#5E1A2C" stroke="none" stroke-width="2" stroke-linecap="round" stroke-linejoin="round"/><circle cx="669.20" cy="673.11" r="3.744" fill="#5E1A2C" stroke="none" stroke-width="2" stroke-linecap="round" stroke-linejoin="round"/><circle cx="626.80" cy="673.11" r="3.744" fill="#5E1A2C" stroke="none" stroke-width="2" stroke-linecap="round" stroke-linejoin="round"/><circle cx="590.09" cy="651.91" r="3.744" fill="#5E1A2C" stroke="none" stroke-width="2" stroke-linecap="round" stroke-linejoin="round"/><circle cx="568.89" cy="615.20" r="3.744" fill="#5E1A2C" stroke="none" stroke-width="2" stroke-linecap="round" stroke-linejoin="round"/><circle cx="568.89" cy="572.80" r="3.744" fill="#5E1A2C" stroke="none" stroke-width="2" stroke-linecap="round" stroke-linejoin="round"/><circle cx="590.09" cy="536.09" r="3.744" fill="#5E1A2C" stroke="none" stroke-width="2" stroke-linecap="round" stroke-linejoin="round"/><circle cx="626.80" cy="514.89" r="3.744" fill="#5E1A2C" stroke="none" stroke-width="2" stroke-linecap="round" stroke-linejoin="round"/><circle cx="648.0" cy="594.0" r="98.28" fill="none" stroke="#5E1A2C" stroke-width="1.2" stroke-linecap="round" stroke-linejoin="round" stroke-opacity="0.7"/><path d="M 0,-102.96 Q 23.400000000000002,-133.38 0,-163.79999999999998 Q -23.400000000000002,-133.38 0,-102.96 Z" transform="translate(648.0,594.0) rotate(0.00)" fill="none" stroke="#5E1A2C" stroke-width="1.5" stroke-linecap="round" stroke-linejoin="round"/><path d="M 0,-102.96 Q 23.400000000000002,-133.38 0,-163.79999999999998 Q -23.400000000000002,-133.38 0,-102.96 Z" transform="translate(648.0,594.0) rotate(30.00)" fill="none" stroke="#5E1A2C" stroke-width="1.5" stroke-linecap="round" stroke-linejoin="round"/><path d="M 0,-102.96 Q 23.400000000000002,-133.38 0,-163.79999999999998 Q -23.400000000000002,-133.38 0,-102.96 Z" transform="translate(648.0,594.0) rotate(60.00)" fill="none" stroke="#5E1A2C" stroke-width="1.5" stroke-linecap="round" stroke-linejoin="round"/><path d="M 0,-102.96 Q 23.400000000000002,-133.38 0,-163.79999999999998 Q -23.400000000000002,-133.38 0,-102.96 Z" transform="translate(648.0,594.0) rotate(90.00)" fill="none" stroke="#5E1A2C" stroke-width="1.5" stroke-linecap="round" stroke-linejoin="round"/><path d="M 0,-102.96 Q 23.400000000000002,-133.38 0,-163.79999999999998 Q -23.400000000000002,-133.38 0,-102.96 Z" transform="translate(648.0,594.0) rotate(120.00)" fill="none" stroke="#5E1A2C" stroke-width="1.5" stroke-linecap="round" stroke-linejoin="round"/><path d="M 0,-102.96 Q 23.400000000000002,-133.38 0,-163.79999999999998 Q -23.400000000000002,-133.38 0,-102.96 Z" transform="translate(648.0,594.0) rotate(150.00)" fill="none" stroke="#5E1A2C" stroke-width="1.5" stroke-linecap="round" stroke-linejoin="round"/><path d="M 0,-102.96 Q 23.400000000000002,-133.38 0,-163.79999999999998 Q -23.400000000000002,-133.38 0,-102.96 Z" transform="translate(648.0,594.0) rotate(180.00)" fill="none" stroke="#5E1A2C" stroke-width="1.5" stroke-linecap="round" stroke-linejoin="round"/><path d="M 0,-102.96 Q 23.400000000000002,-133.38 0,-163.79999999999998 Q -23.400000000000002,-133.38 0,-102.96 Z" transform="translate(648.0,594.0) rotate(210.00)" fill="none" stroke="#5E1A2C" stroke-width="1.5" stroke-linecap="round" stroke-linejoin="round"/><path d="M 0,-102.96 Q 23.400000000000002,-133.38 0,-163.79999999999998 Q -23.400000000000002,-133.38 0,-102.96 Z" transform="translate(648.0,594.0) rotate(240.00)" fill="none" stroke="#5E1A2C" stroke-width="1.5" stroke-linecap="round" stroke-linejoin="round"/><path d="M 0,-102.96 Q 23.400000000000002,-133.38 0,-163.79999999999998 Q -23.400000000000002,-133.38 0,-102.96 Z" transform="translate(648.0,594.0) rotate(270.00)" fill="none" stroke="#5E1A2C" stroke-width="1.5" stroke-linecap="round" stroke-linejoin="round"/><path d="M 0,-102.96 Q 23.400000000000002,-133.38 0,-163.79999999999998 Q -23.400000000000002,-133.38 0,-102.96 Z" transform="translate(648.0,594.0) rotate(300.00)" fill="none" stroke="#5E1A2C" stroke-width="1.5" stroke-linecap="round" stroke-linejoin="round"/><path d="M 0,-102.96 Q 23.400000000000002,-133.38 0,-163.79999999999998 Q -23.400000000000002,-133.38 0,-102.96 Z" transform="translate(648.0,594.0) rotate(330.00)" fill="none" stroke="#5E1A2C" stroke-width="1.5" stroke-linecap="round" stroke-linejoin="round"/><circle cx="683.13" cy="462.90" r="5.148" fill="#B08A4A" stroke="none" stroke-width="2" stroke-linecap="round" stroke-linejoin="round"/><circle cx="743.97" cy="498.03" r="5.148" fill="#B08A4A" stroke="none" stroke-width="2" stroke-linecap="round" stroke-linejoin="round"/><circle cx="779.10" cy="558.87" r="5.148" fill="#B08A4A" stroke="none" stroke-width="2" stroke-linecap="round" stroke-linejoin="round"/><circle cx="779.10" cy="629.13" r="5.148" fill="#B08A4A" stroke="none" stroke-width="2" stroke-linecap="round" stroke-linejoin="round"/><circle cx="743.97" cy="689.97" r="5.148" fill="#B08A4A" stroke="none" stroke-width="2" stroke-linecap="round" stroke-linejoin="round"/><circle cx="683.13" cy="725.10" r="5.148" fill="#B08A4A" stroke="none" stroke-width="2" stroke-linecap="round" stroke-linejoin="round"/><circle cx="612.87" cy="725.10" r="5.148" fill="#B08A4A" stroke="none" stroke-width="2" stroke-linecap="round" stroke-linejoin="round"/><circle cx="552.03" cy="689.97" r="5.148" fill="#B08A4A" stroke="none" stroke-width="2" stroke-linecap="round" stroke-linejoin="round"/><circle cx="516.90" cy="629.13" r="5.148" fill="#B08A4A" stroke="none" stroke-width="2" stroke-linecap="round" stroke-linejoin="round"/><circle cx="516.90" cy="558.87" r="5.148" fill="#B08A4A" stroke="none" stroke-width="2" stroke-linecap="round" stroke-linejoin="round"/><circle cx="552.03" cy="498.03" r="5.148" fill="#B08A4A" stroke="none" stroke-width="2" stroke-linecap="round" stroke-linejoin="round"/><circle cx="612.87" cy="462.90" r="5.148" fill="#B08A4A" stroke="none" stroke-width="2" stroke-linecap="round" stroke-linejoin="round"/><circle cx="648.0" cy="594.0" r="173.16" fill="none" stroke="#5E1A2C" stroke-width="1.1" stroke-linecap="round" stroke-linejoin="round" stroke-opacity="0.6"/><path d="M 648.00,420.84 A 198.90,198.90 0 0 1 714.27,434.02" fill="none" stroke="#5E1A2C" stroke-width="1.4" stroke-linecap="round" stroke-linejoin="round"/><path d="M 714.27,434.02 A 198.90,198.90 0 0 1 770.44,471.56" fill="none" stroke="#5E1A2C" stroke-width="1.4" stroke-linecap="round" stroke-linejoin="round"/><path d="M 770.44,471.56 A 198.90,198.90 0 0 1 807.98,527.73" fill="none" stroke="#5E1A2C" stroke-width="1.4" stroke-linecap="round" stroke-linejoin="round"/><path d="M 807.98,527.73 A 198.90,198.90 0 0 1 821.16,594.00" fill="none" stroke="#5E1A2C" stroke-width="1.4" stroke-linecap="round" stroke-linejoin="round"/><path d="M 821.16,594.00 A 198.90,198.90 0 0 1 807.98,660.27" fill="none" stroke="#5E1A2C" stroke-width="1.4" stroke-linecap="round" stroke-linejoin="round"/><path d="M 807.98,660.27 A 198.90,198.90 0 0 1 770.44,716.44" fill="none" stroke="#5E1A2C" stroke-width="1.4" stroke-linecap="round" stroke-linejoin="round"/><path d="M 770.44,716.44 A 198.90,198.90 0 0 1 714.27,753.98" fill="none" stroke="#5E1A2C" stroke-width="1.4" stroke-linecap="round" stroke-linejoin="round"/><path d="M 714.27,753.98 A 198.90,198.90 0 0 1 648.00,767.16" fill="none" stroke="#5E1A2C" stroke-width="1.4" stroke-linecap="round" stroke-linejoin="round"/><path d="M 648.00,767.16 A 198.90,198.90 0 0 1 581.73,753.98" fill="none" stroke="#5E1A2C" stroke-width="1.4" stroke-linecap="round" stroke-linejoin="round"/><path d="M 581.73,753.98 A 198.90,198.90 0 0 1 525.56,716.44" fill="none" stroke="#5E1A2C" stroke-width="1.4" stroke-linecap="round" stroke-linejoin="round"/><path d="M 525.56,716.44 A 198.90,198.90 0 0 1 488.02,660.27" fill="none" stroke="#5E1A2C" stroke-width="1.4" stroke-linecap="round" stroke-linejoin="round"/><path d="M 488.02,660.27 A 198.90,198.90 0 0 1 474.84,594.00" fill="none" stroke="#5E1A2C" stroke-width="1.4" stroke-linecap="round" stroke-linejoin="round"/><path d="M 474.84,594.00 A 198.90,198.90 0 0 1 488.02,527.73" fill="none" stroke="#5E1A2C" stroke-width="1.4" stroke-linecap="round" stroke-linejoin="round"/><path d="M 488.02,527.73 A 198.90,198.90 0 0 1 525.56,471.56" fill="none" stroke="#5E1A2C" stroke-width="1.4" stroke-linecap="round" stroke-linejoin="round"/><path d="M 525.56,471.56 A 198.90,198.90 0 0 1 581.73,434.02" fill="none" stroke="#5E1A2C" stroke-width="1.4" stroke-linecap="round" stroke-linejoin="round"/><path d="M 581.73,434.02 A 198.90,198.90 0 0 1 648.00,420.84" fill="none" stroke="#5E1A2C" stroke-width="1.4" stroke-linecap="round" stroke-linejoin="round"/><circle cx="689.52" cy="380.38" r="4.212" fill="#5E1A2C" stroke="none" stroke-width="2" stroke-linecap="round" stroke-linejoin="round"/><circle cx="768.11" cy="412.53" r="4.212" fill="#5E1A2C" stroke="none" stroke-width="2" stroke-linecap="round" stroke-linejoin="round"/><circle cx="828.42" cy="472.31" r="4.212" fill="#5E1A2C" stroke="none" stroke-width="2" stroke-linecap="round" stroke-linejoin="round"/><circle cx="861.25" cy="550.61" r="4.212" fill="#5E1A2C" stroke="none" stroke-width="2" stroke-linecap="round" stroke-linejoin="round"/><circle cx="861.62" cy="635.52" r="4.212" fill="#5E1A2C" stroke="none" stroke-width="2" stroke-linecap="round" stroke-linejoin="round"/><circle cx="829.47" cy="714.11" r="4.212" fill="#5E1A2C" stroke="none" stroke-width="2" stroke-linecap="round" stroke-linejoin="round"/><circle cx="769.69" cy="774.42" r="4.212" fill="#5E1A2C" stroke="none" stroke-width="2" stroke-linecap="round" stroke-linejoin="round"/><circle cx="691.39" cy="807.25" r="4.212" fill="#5E1A2C" stroke="none" stroke-width="2" stroke-linecap="round" stroke-linejoin="round"/><circle cx="606.48" cy="807.62" r="4.212" fill="#5E1A2C" stroke="none" stroke-width="2" stroke-linecap="round" stroke-linejoin="round"/><circle cx="527.89" cy="775.47" r="4.212" fill="#5E1A2C" stroke="none" stroke-width="2" stroke-linecap="round" stroke-linejoin="round"/><circle cx="467.58" cy="715.69" r="4.212" fill="#5E1A2C" stroke="none" stroke-width="2" stroke-linecap="round" stroke-linejoin="round"/><circle cx="434.75" cy="637.39" r="4.212" fill="#5E1A2C" stroke="none" stroke-width="2" stroke-linecap="round" stroke-linejoin="round"/><circle cx="434.38" cy="552.48" r="4.212" fill="#5E1A2C" stroke="none" stroke-width="2" stroke-linecap="round" stroke-linejoin="round"/><circle cx="466.53" cy="473.89" r="4.212" fill="#5E1A2C" stroke="none" stroke-width="2" stroke-linecap="round" stroke-linejoin="round"/><circle cx="526.31" cy="413.58" r="4.212" fill="#5E1A2C" stroke="none" stroke-width="2" stroke-linecap="round" stroke-linejoin="round"/><circle cx="604.61" cy="380.75" r="4.212" fill="#5E1A2C" stroke="none" stroke-width="2" stroke-linecap="round" stroke-linejoin="round"/><path d="M 0,-224.64 C 25.74,-245.93 23.17,-270.04 0,-285.48 C -23.17,-270.04 -25.74,-245.93 0,-224.64 Z" transform="translate(648.0,594.0) rotate(11.00)" fill="none" stroke="#5E1A2C" stroke-width="1.4" stroke-linecap="round" stroke-linejoin="round"/><path d="M 0,-224.64 C 25.74,-245.93 23.17,-270.04 0,-285.48 C -23.17,-270.04 -25.74,-245.93 0,-224.64 Z" transform="translate(648.0,594.0) rotate(33.50)" fill="none" stroke="#5E1A2C" stroke-width="1.4" stroke-linecap="round" stroke-linejoin="round"/><path d="M 0,-224.64 C 25.74,-245.93 23.17,-270.04 0,-285.48 C -23.17,-270.04 -25.74,-245.93 0,-224.64 Z" transform="translate(648.0,594.0) rotate(56.00)" fill="none" stroke="#5E1A2C" stroke-width="1.4" stroke-linecap="round" stroke-linejoin="round"/><path d="M 0,-224.64 C 25.74,-245.93 23.17,-270.04 0,-285.48 C -23.17,-270.04 -25.74,-245.93 0,-224.64 Z" transform="translate(648.0,594.0) rotate(78.50)" fill="none" stroke="#5E1A2C" stroke-width="1.4" stroke-linecap="round" stroke-linejoin="round"/><path d="M 0,-224.64 C 25.74,-245.93 23.17,-270.04 0,-285.48 C -23.17,-270.04 -25.74,-245.93 0,-224.64 Z" transform="translate(648.0,594.0) rotate(101.00)" fill="none" stroke="#5E1A2C" stroke-width="1.4" stroke-linecap="round" stroke-linejoin="round"/><path d="M 0,-224.64 C 25.74,-245.93 23.17,-270.04 0,-285.48 C -23.17,-270.04 -25.74,-245.93 0,-224.64 Z" transform="translate(648.0,594.0) rotate(123.50)" fill="none" stroke="#5E1A2C" stroke-width="1.4" stroke-linecap="round" stroke-linejoin="round"/><path d="M 0,-224.64 C 25.74,-245.93 23.17,-270.04 0,-285.48 C -23.17,-270.04 -25.74,-245.93 0,-224.64 Z" transform="translate(648.0,594.0) rotate(146.00)" fill="none" stroke="#5E1A2C" stroke-width="1.4" stroke-linecap="round" stroke-linejoin="round"/><path d="M 0,-224.64 C 25.74,-245.93 23.17,-270.04 0,-285.48 C -23.17,-270.04 -25.74,-245.93 0,-224.64 Z" transform="translate(648.0,594.0) rotate(168.50)" fill="none" stroke="#5E1A2C" stroke-width="1.4" stroke-linecap="round" stroke-linejoin="round"/><path d="M 0,-224.64 C 25.74,-245.93 23.17,-270.04 0,-285.48 C -23.17,-270.04 -25.74,-245.93 0,-224.64 Z" transform="translate(648.0,594.0) rotate(191.00)" fill="none" stroke="#5E1A2C" stroke-width="1.4" stroke-linecap="round" stroke-linejoin="round"/><path d="M 0,-224.64 C 25.74,-245.93 23.17,-270.04 0,-285.48 C -23.17,-270.04 -25.74,-245.93 0,-224.64 Z" transform="translate(648.0,594.0) rotate(213.50)" fill="none" stroke="#5E1A2C" stroke-width="1.4" stroke-linecap="round" stroke-linejoin="round"/><path d="M 0,-224.64 C 25.74,-245.93 23.17,-270.04 0,-285.48 C -23.17,-270.04 -25.74,-245.93 0,-224.64 Z" transform="translate(648.0,594.0) rotate(236.00)" fill="none" stroke="#5E1A2C" stroke-width="1.4" stroke-linecap="round" stroke-linejoin="round"/><path d="M 0,-224.64 C 25.74,-245.93 23.17,-270.04 0,-285.48 C -23.17,-270.04 -25.74,-245.93 0,-224.64 Z" transform="translate(648.0,594.0) rotate(258.50)" fill="none" stroke="#5E1A2C" stroke-width="1.4" stroke-linecap="round" stroke-linejoin="round"/><path d="M 0,-224.64 C 25.74,-245.93 23.17,-270.04 0,-285.48 C -23.17,-270.04 -25.74,-245.93 0,-224.64 Z" transform="translate(648.0,594.0) rotate(281.00)" fill="none" stroke="#5E1A2C" stroke-width="1.4" stroke-linecap="round" stroke-linejoin="round"/><path d="M 0,-224.64 C 25.74,-245.93 23.17,-270.04 0,-285.48 C -23.17,-270.04 -25.74,-245.93 0,-224.64 Z" transform="translate(648.0,594.0) rotate(303.50)" fill="none" stroke="#5E1A2C" stroke-width="1.4" stroke-linecap="round" stroke-linejoin="round"/><path d="M 0,-224.64 C 25.74,-245.93 23.17,-270.04 0,-285.48 C -23.17,-270.04 -25.74,-245.93 0,-224.64 Z" transform="translate(648.0,594.0) rotate(326.00)" fill="none" stroke="#5E1A2C" stroke-width="1.4" stroke-linecap="round" stroke-linejoin="round"/><path d="M 0,-224.64 C 25.74,-245.93 23.17,-270.04 0,-285.48 C -23.17,-270.04 -25.74,-245.93 0,-224.64 Z" transform="translate(648.0,594.0) rotate(348.50)" fill="none" stroke="#5E1A2C" stroke-width="1.4" stroke-linecap="round" stroke-linejoin="round"/></g><g transform="translate(45.0,828.0) rotate(0)"><path d="M 0.0,0.0 L 20.2,3.1 L 40.5,6.1 L 60.8,8.9 L 81.0,11.5 L 101.2,13.7 L 121.5,15.5 L 141.8,16.8 L 162.0,17.7 L 182.2,18.0 L 202.5,17.8 L 222.8,17.0 L 243.0,15.8 L 263.2,14.0 L 283.5,11.9 L 303.8,9.4 L 324.0,6.6 L 344.2,3.7 L 364.5,0.6 L 384.8,-2.5 L 405.0,-5.6 L 425.2,-8.4 L 445.5,-11.0 L 465.7,-13.3 L 486.0,-15.2 L 506.2,-16.6 L 526.5,-17.6 L 546.8,-18.0 L 567.0,-17.9 L 587.2,-17.2 L 607.5,-16.0 L 627.8,-14.4 L 648.0,-12.3 L 668.2,-9.9 L 688.5,-7.1 L 708.8,-4.2 L 729.0,-1.1 L 749.2,2.0 L 769.5,5.0 L 789.8,7.9 L 810.0,10.6" fill="none" stroke="#5E1A2C" stroke-width="1.6" stroke-linecap="round" stroke-linejoin="round"/><path d="M 0,-3 C 7,-7.20 6.30,-10.80 0,-15 C -6.30,-10.80 -7,-7.20 0,-3 Z" transform="translate(57.857142857142854,8.529635924513977) rotate(62.00)" fill="none" stroke="#5E1A2C" stroke-width="1.3" stroke-linecap="round" stroke-linejoin="round"/><circle cx="57.9" cy="8.5" r="2" fill="#5E1A2C" stroke="none"/><path d="M 0,-3 C 7,-7.20 6.30,-10.80 0,-15 C -6.30,-10.80 -7,-7.20 0,-3 Z" transform="translate(173.57142857142856,17.9275372919143) rotate(-62.00)" fill="none" stroke="#5E1A2C" stroke-width="1.3" stroke-linecap="round" stroke-linejoin="round"/><circle cx="173.6" cy="17.9" r="2" fill="#5E1A2C" stroke="none"/><path d="M 0,-3 C 7,-7.20 6.30,-10.80 0,-15 C -6.30,-10.80 -7,-7.20 0,-3 Z" transform="translate(289.2857142857143,11.222816433457204) rotate(62.00)" fill="none" stroke="#5E1A2C" stroke-width="1.3" stroke-linecap="round" stroke-linejoin="round"/><circle cx="289.3" cy="11.2" r="2" fill="#5E1A2C" stroke="none"/><path d="M 0,-3 C 7,-7.20 6.30,-10.80 0,-15 C -6.30,-10.80 -7,-7.20 0,-3 Z" transform="translate(405.0,-5.5623058987490595) rotate(-62.00)" fill="none" stroke="#5E1A2C" stroke-width="1.3" stroke-linecap="round" stroke-linejoin="round"/><circle cx="405.0" cy="-5.6" r="2" fill="#5E1A2C" stroke="none"/><path d="M 0,-3 C 7,-7.20 6.30,-10.80 0,-15 C -6.30,-10.80 -7,-7.20 0,-3 Z" transform="translate(520.7142857142858,-17.351331492525357) rotate(62.00)" fill="none" stroke="#5E1A2C" stroke-width="1.3" stroke-linecap="round" stroke-linejoin="round"/><circle cx="520.7" cy="-17.4" r="2" fill="#5E1A2C" stroke="none"/><path d="M 0,-3 C 7,-7.20 6.30,-10.80 0,-15 C -6.30,-10.80 -7,-7.20 0,-3 Z" transform="translate(636.4285714285714,-13.555286388065) rotate(-62.00)" fill="none" stroke="#5E1A2C" stroke-width="1.3" stroke-linecap="round" stroke-linejoin="round"/><circle cx="636.4" cy="-13.6" r="2" fill="#5E1A2C" stroke="none"/><path d="M 0,-3 C 7,-7.20 6.30,-10.80 0,-15 C -6.30,-10.80 -7,-7.20 0,-3 Z" transform="translate(752.1428571428572,2.41619878471781) rotate(62.00)" fill="none" stroke="#5E1A2C" stroke-width="1.3" stroke-linecap="round" stroke-linejoin="round"/><circle cx="752.1" cy="2.4" r="2" fill="#5E1A2C" stroke="none"/></g><rect x="20" y="20" width="860" height="860" rx="6" fill="none" stroke="#B08A4A" stroke-width="2" stroke-opacity=".45"/></svg>