<svg xmlns="http://www.w3.org/2000/svg" viewBox="0 0 900 1120" width="900" height="1120" role="img" aria-label="Close-up mehndi detail placeholder"><title>Close-up mehndi detail placeholder</title><defs>
<radialGradient id="bgg12" cx="50%" cy="42%" r="78%">
<stop offset="0%" stop-color="#FBF6EE"/><stop offset="100%" stop-color="#EFE3D4"/>
</radialGradient>
<filter id="graing12" x="0" y="0" width="100%" height="100%">
<feTurbulence type="fractalNoise" baseFrequency="0.9" numOctaves="3" result="n"/>
<feColorMatrix type="saturate" values="0"/>
<feComponentTransfer><feFuncA type="linear" slope="0.12"/></feComponentTransfer>
<feBlend in2="SourceGraphic" mode="multiply"/>
</filter>
</defs>
<rect width="900" height="1120" fill="url(#bgg12)"/>
<rect width="900" height="1120" filter="url(#graing12)" opacity=".5" fill="#FBF6EE"/><g><circle cx="450.0" cy="560.0" r="36.00" fill="#B08A4A" stroke="#B08A4A" stroke-width="2" stroke-linecap="round" stroke-linejoin="round" fill-opacity="0.9"/><path d="M 0,-43.199999999999996 Q 30.6,-75.60 0,-108.0 Q -30.6,-75.60 0,-43.199999999999996 Z" transform="translate(450.0,560.0) rotate(22.00)" fill="none" stroke="#5E1A2C" stroke-width="1.6" stroke-linecap="round" stroke-linejoin="round"/><path d="M 0,-43.199999999999996 Q 30.6,-75.60 0,-108.0 Q -30.6,-75.60 0,-43.199999999999996 Z" transform="translate(450.0,560.0) rotate(67.00)" fill="none" stroke="#5E1A2C" stroke-width="1.6" stroke-linecap="round" stroke-linejoin="round"/><path d="M 0,-43.199999999999996 Q 30.6,-75.60 0,-108.0 Q -30.6,-75.60 0,-43.199999999999996 Z" transform="translate(450.0,560.0) rotate(112.00)" fill="none" stroke="#5E1A2C" stroke-width="1.6" stroke-linecap="round" stroke-linejoin="round"/><path d="M 0,-43.199999999999996 Q 30.6,-75.60 0,-108.0 Q -30.6,-75.60 0,-43.199999999999996 Z" transform="translate(450.0,560.0) rotate(157.00)" fill="none" stroke="#5E1A2C" stroke-width="1.6" stroke-linecap="round" stroke-linejoin="round"/><path d="M 0,-43.199999999999996 Q 30.6,-75.60 0,-108.0 Q -30.6,-75.60 0,-43.199999999999996 Z" transform="translate(450.0,560.0) rotate(202.00)" fill="none" stroke="#5E1A2C" stroke-width="1.6" stroke-linecap="round" stroke-linejoin="round"/><path d="M 0,-43.199999999999996 Q 30.6,-75.60 0,-108.0 Q -30.6,-75.60 0,-43.199999999999996 Z" transform="translate(450.0,560.0) rotate(247.00)" fill="none" stroke="#5E1A2C" stroke-width="1.6" stroke-linecap="round" stroke-linejoin="round"/><path d="M 0,-43.199999999999996 Q 30.6,-75.60 0,-108.0 Q -30.6,-75.60 0,-43.199999999999996 Z" transform="translate(450.0,560.0) rotate(292.00)" fill="none" stroke="#5E1A2C" stroke-width="1.6" stroke-linecap="round" stroke-linejoin="round"/><path d="M 0,-43.199999999999996 Q 30.6,-75.60 0,-108.0 Q -30.6,-75.60 0,-43.199999999999996 Z" transform="translate(450.0,560.0) rotate(337.00)" fill="none" stroke="#5E1A2C" stroke-width="1.6" stroke-linecap="round" stroke-linejoin="round"/><circle cx="482.61" cy="438.29" r="5.76" fill="#5E1A2C" stroke="none" stroke-width="2" stroke-linecap="round" stroke-linejoin="round"/><circle cx="539.10" cy="470.90" r="5.76" fill="#5E1A2C" stroke="none" stroke-width="2" stroke-linecap="round" stroke-linejoin="round"/><circle cx="571.71" cy="527.39" r="5.76" fill="#5E1A2C" stroke="none" stroke-width="2" stroke-linecap="round" stroke-linejoin="round"/><circle cx="571.71" cy="592.61" r="5.76" fill="#5E1A2C" stroke="none" stroke-width="2" stroke-linecap="round" stroke-linejoin="round"/><circle cx="539.10" cy="649.10" r="5.76" fill="#5E1A2C" stroke="none" stroke-width="2" stroke-linecap="round" stroke-linejoin="round"/><circle cx="482.61" cy="681.71" r="5.76" fill="#5E1A2C" stroke="none" stroke-width="2" stroke-linecap="round" stroke-linejoin="round"/><circle cx="417.39" cy="681.71" r="5.76" fill="#5E1A2C" stroke="none" stroke-width="2" stroke-linecap="round" stroke-linejoin="round"/><circle cx="360.90" cy="649.10" r="5.76" fill="#5E1A2C" stroke="none" stroke-width="2" stroke-linecap="round" stroke-linejoin="round"/><circle cx="328.29" cy="592.61" r="5.76" fill="#5E1A2C" stroke="none" stroke-width="2" stroke-linecap="round" stroke-linejoin="round"/><circle cx="328.29" cy="527.39" r="5.76" fill="#5E1A2C" stroke="none" stroke-width="2" stroke-linecap="round" stroke-linejoin="round"/><circle cx="360.90" cy="470.90" r="5.76" fill="#5E1A2C" stroke="none" stroke-width="2" stroke-linecap="round" stroke-linejoin="round"/><circle cx="417.39" cy="438.29" r="5.76" fill="#5E1A2C" stroke="none" stroke-width="2" stroke-linecap="round" stroke-linejoin="round"/><circle cx="450.0" cy="560.0" r="151.20" fill="none" stroke="#5E1A2C" stroke-width="1.2" stroke-linecap="round" stroke-linejoin="round" stroke-opacity="0.7"/><path d="M 0,-158.4 Q 36.0,-205.20 0,-251.99999999999997 Q -36.0,-205.20 0,-158.4 Z" transform="translate(450.0,560.0) rotate(0.00)" fill="none" stroke="#5E1A2C" stroke-width="1.5" stroke-linecap="round" stroke-linejoin="round"/><path d="M 0,-158.4 Q 36.0,-205.20 0,-251.99999999999997 Q -36.0,-205.20 0,-158.4 Z" transform="translate(450.0,560.0) rotate(30.00)" fill="none" stroke="#5E1A2C" stroke-width="1.5" stroke-linecap="round" stroke-linejoin="round"/><path d="M 0,-158.4 Q 36.0,-205.20 0,-251.99999999999997 Q -36.0,-205.20 0,-158.4 Z" transform="translate(450.0,560.0) rotate(60.00)" fill="none" stroke="#5E1A2C" stroke-width="1.5" stroke-linecap="round" stroke-linejoin="round"/><path d="M 0,-158.4 Q 36.0,-205.20 0,-251.99999999999997 Q -36.0,-205.20 0,-158.4 Z" transform="translate(450.0,560.0) rotate(90.00)" fill="none" stroke="#5E1A2C" stroke-width="1.5" stroke-linecap="round" stroke-linejoin="round"/><path d="M 0,-158.4 Q 36.0,-205.20 0,-251.99999999999997 Q -36.0,-205.20 0,-158.4 Z" transform="translate(450.0,560.0) rotate(120.00)" fill="none" stroke="#5E1A2C" stroke-width="1.5" stroke-linecap="round" stroke-linejoin="round"/><path d="M 0,-158.4 Q 36.0,-205.20 0,-251.99999999999997 Q -36.0,-205.20 0,-158.4 Z" transform="translate(450.0,560.0) rotate(150.00)" fill="none" stroke="#5E1A2C" stroke-width="1.5" stroke-linecap="round" stroke-linejoin="round"/><path d="M 0,-158.4 Q 36.0,-205.20 0,-251.99999999999997 Q -36.0,-205.20 0,-158.4 Z" transform="translate(450.0,560.0) rotate(180.00)" fill="none" stroke="#5E1A2C" stroke-width="1.5" stroke-linecap="round" stroke-linejoin="round"/><path d="M 0,-158.4 Q 36.0,-205.20 0,-251.99999999999997 Q -36.0,-205.20 0,-158.4 Z" transform="translate(450.0,560.0) rotate(210.00)" fill="none" stroke="#5E1A2C" stroke-width="1.5" stroke-linecap="round" stroke-linejoin="round"/><path d="M 0,-158.4 Q 36.0,-205.20 0,-251.99999999999997 Q -36.0,-205.20 0,-158.4 Z" transform="translate(450.0,560.0) rotate(240.00)" fill="none" stroke="#5E1A2C" stroke-width="1.5" stroke-linecap="round" stroke-linejoin="round"/><path d="M 0,-158.4 Q 36.0,-205.20 0,-251.99999999999997 Q -36.0,-205.20 0,-158.4 Z" transform="translate(450.0,560.0) rotate(270.00)" fill="none" stroke="#5E1A2C" stroke-width="1.5" stroke-linecap="round" stroke-linejoin="round"/><path d="M 0,-158.4 Q 36.0,-205.20 0,-251.99999999999997 Q -36.0,-205.20 0,-158.4 Z" transform="translate(450.0,560.0) rotate(300.00)" fill="none" stroke="#5E1A2C" stroke-width="1.5" stroke-linecap="round" stroke-linejoin="round"/><path d="M 0,-158.4 Q 36.0,-205.20 0,-251.99999999999997 Q -36.0,-205.20 0,-158.4 Z" transform="translate(450.0,560.0) rotate(330.00)" fill="none" stroke="#5E1A2C" stroke-width="1.5" stroke-linecap="round" stroke-linejoin="round"/><circle cx="504.04" cy="358.31" r="7.92" fill="#B08A4A" stroke="none" stroke-width="2" stroke-linecap="round" stroke-linejoin="round"/><circle cx="597.64" cy="412.36" r="7.92" fill="#B08A4A" stroke="none" stroke-width="2" stroke-linecap="round" stroke-linejoin="round"/><circle cx="651.69" cy="505.96" r="7.92" fill="#B08A4A" stroke="none" stroke-width="2" stroke-linecap="round" stroke-linejoin="round"/><circle cx="651.69" cy="614.04" r="7.92" fill="#B08A4A" stroke="none" stroke-width="2" stroke-linecap="round" stroke-linejoin="round"/><circle cx="597.64" cy="707.64" r="7.92" fill="#B08A4A" stroke="none" stroke-width="2" stroke-linecap="round" stroke-linejoin="round"/><circle cx="504.04" cy="761.69" r="7.92" fill="#B08A4A" stroke="none" stroke-width="2" stroke-linecap="round" stroke-linejoin="round"/><circle cx="395.96" cy="761.69" r="7.92" fill="#B08A4A" stroke="none" stroke-width="2" stroke-linecap="round" stroke-linejoin="round"/><circle cx="302.36" cy="707.64" r="7.92" fill="#B08A4A" stroke="none" stroke-width="2" stroke-linecap="round" stroke-linejoin="round"/><circle cx="248.31" cy="614.04" r="7.92" fill="#B08A4A" stroke="none" stroke-width="2" stroke-linecap="round" stroke-linejoin="round"/><circle cx="248.31" cy="505.96" r="7.92" fill="#B08A4A" stroke="none" stroke-width="2" stroke-linecap="round" stroke-linejoin="round"/><circle cx="302.36" cy="412.36" r="7.92" fill="#B08A4A" stroke="none" stroke-width="2" stroke-linecap="round" stroke-linejoin="round"/><circle cx="395.96" cy="358.31" r="7.92" fill="#B08A4A" stroke="none" stroke-width="2" stroke-linecap="round" stroke-linejoin="round"/><circle cx="450.0" cy="560.0" r="266.40" fill="none" stroke="#5E1A2C" stroke-width="1.1" stroke-linecap="round" stroke-linejoin="round" stroke-opacity="0.6"/><path d="M 450.00,293.60 A 306.00,306.00 0 0 1 551.95,313.88" fill="none" stroke="#5E1A2C" stroke-width="1.4" stroke-linecap="round" stroke-linejoin="round"/><path d="M 551.95,313.88 A 306.00,306.00 0 0 1 638.37,371.63" fill="none" stroke="#5E1A2C" stroke-width="1.4" stroke-linecap="round" stroke-linejoin="round"/><path d="M 638.37,371.63 A 306.00,306.00 0 0 1 696.12,458.05" fill="none" stroke="#5E1A2C" stroke-width="1.4" stroke-linecap="round" stroke-linejoin="round"/><path d="M 696.12,458.05 A 306.00,306.00 0 0 1 716.40,560.00" fill="none" stroke="#5E1A2C" stroke-width="1.4" stroke-linecap="round" stroke-linejoin="round"/><path d="M 716.40,560.00 A 306.00,306.00 0 0 1 696.12,661.95" fill="none" stroke="#5E1A2C" stroke-width="1.4" stroke-linecap="round" stroke-linejoin="round"/><path d="M 696.12,661.95 A 306.00,306.00 0 0 1 638.37,748.37" fill="none" stroke="#5E1A2C" stroke-width="1.4" stroke-linecap="round" stroke-linejoin="round"/><path d="M 638.37,748.37 A 306.00,306.00 0 0 1 551.95,806.12" fill="none" stroke="#5E1A2C" stroke-width="1.4" stroke-linecap="round" stroke-linejoin="round"/><path d="M 551.95,806.12 A 306.00,306.00 0 0 1 450.00,826.40" fill="none" stroke="#5E1A2C" stroke-width="1.4" stroke-linecap="round" stroke-linejoin="round"/><path d="M 450.00,826.40 A 306.00,306.00 0 0 1 348.05,806.12" fill="none" stroke="#5E1A2C" stroke-width="1.4" stroke-linecap="round" stroke-linejoin="round"/><path d="M 348.05,806.12 A 306.00,306.00 0 0 1 261.63,748.37" fill="none" stroke="#5E1A2C" stroke-width="1.4" stroke-linecap="round" stroke-linejoin="round"/><path d="M 261.63,748.37 A 306.00,306.00 0 0 1 203.88,661.95" fill="none" stroke="#5E1A2C" stroke-width="1.4" stroke-linecap="round" stroke-linejoin="round"/><path d="M 203.88,661.95 A 306.00,306.00 0 0 1 183.60,560.00" fill="none" stroke="#5E1A2C" stroke-width="1.4" stroke-linecap="round" stroke-linejoin="round"/><path d="M 183.60,560.00 A 306.00,306.00 0 0 1 203.88,458.05" fill="none" stroke="#5E1A2C" stroke-width="1.4" stroke-linecap="round" stroke-linejoin="round"/><path d="M 203.88,458.05 A 306.00,306.00 0 0 1 261.63,371.63" fill="none" stroke="#5E1A2C" stroke-width="1.4" stroke-linecap="round" stroke-linejoin="round"/><path d="M 261.63,371.63 A 306.00,306.00 0 0 1 348.05,313.88" fill="none" stroke="#5E1A2C" stroke-width="1.4" stroke-linecap="round" stroke-linejoin="round"/><path d="M 348.05,313.88 A 306.00,306.00 0 0 1 450.00,293.60" fill="none" stroke="#5E1A2C" stroke-width="1.4" stroke-linecap="round" stroke-linejoin="round"/><circle cx="513.88" cy="231.35" r="6.4799999999999995" fill="#5E1A2C" stroke="none" stroke-width="2" stroke-linecap="round" stroke-linejoin="round"/><circle cx="634.79" cy="280.82" r="6.4799999999999995" fill="#5E1A2C" stroke="none" stroke-width="2" stroke-linecap="round" stroke-linejoin="round"/><circle cx="727.56" cy="372.78" r="6.4799999999999995" fill="#5E1A2C" stroke="none" stroke-width="2" stroke-linecap="round" stroke-linejoin="round"/><circle cx="778.08" cy="493.25" r="6.4799999999999995" fill="#5E1A2C" stroke="none" stroke-width="2" stroke-linecap="round" stroke-linejoin="round"/><circle cx="778.65" cy="623.88" r="6.4799999999999995" fill="#5E1A2C" stroke="none" stroke-width="2" stroke-linecap="round" stroke-linejoin="round"/><circle cx="729.18" cy="744.79" r="6.4799999999999995" fill="#5E1A2C" stroke="none" stroke-width="2" stroke-linecap="round" stroke-linejoin="round"/><circle cx="637.22" cy="837.56" r="6.4799999999999995" fill="#5E1A2C" stroke="none" stroke-width="2" stroke-linecap="round" stroke-linejoin="round"/><circle cx="516.75" cy="888.08" r="6.4799999999999995" fill="#5E1A2C" stroke="none" stroke-width="2" stroke-linecap="round" stroke-linejoin="round"/><circle cx="386.12" cy="888.65" r="6.4799999999999995" fill="#5E1A2C" stroke="none" stroke-width="2" stroke-linecap="round" stroke-linejoin="round"/><circle cx="265.21" cy="839.18" r="6.4799999999999995" fill="#5E1A2C" stroke="none" stroke-width="2" stroke-linecap="round" stroke-linejoin="round"/><circle cx="172.44" cy="747.22" r="6.4799999999999995" fill="#5E1A2C" stroke="none" stroke-width="2" stroke-linecap="round" stroke-linejoin="round"/><circle cx="121.92" cy="626.75" r="6.4799999999999995" fill="#5E1A2C" stroke="none" stroke-width="2" stroke-linecap="round" stroke-linejoin="round"/><circle cx="121.35" cy="496.12" r="6.4799999999999995" fill="#5E1A2C" stroke="none" stroke-width="2" stroke-linecap="round" stroke-linejoin="round"/><circle cx="170.82" cy="375.21" r="6.4799999999999995" fill="#5E1A2C" stroke="none" stroke-width="2" stroke-linecap="round" stroke-linejoin="round"/><circle cx="262.78" cy="282.44" r="6.4799999999999995" fill="#5E1A2C" stroke="none" stroke-width="2" stroke-linecap="round" stroke-linejoin="round"/><circle cx="383.25" cy="231.92" r="6.4799999999999995" fill="#5E1A2C" stroke="none" stroke-width="2" stroke-linecap="round" stroke-linejoin="round"/><path d="M 0,-345.59999999999997 C 39.6,-378.36 35.64,-415.44 0,-439.2 C -35.64,-415.44 -39.6,-378.36 0,-345.59999999999997 Z" transform="translate(450.0,560.0) rotate(11.00)" fill="none" stroke="#5E1A2C" stroke-width="1.4" stroke-linecap="round" stroke-linejoin="round"/><path d="M 0,-345.59999999999997 C 39.6,-378.36 35.64,-415.44 0,-439.2 C -35.64,-415.44 -39.6,-378.36 0,-345.59999999999997 Z" transform="translate(450.0,560.0) rotate(33.50)" fill="none" stroke="#5E1A2C" stroke-width="1.4" stroke-linecap="round" stroke-linejoin="round"/><path d="M 0,-345.59999999999997 C 39.6,-378.36 35.64,-415.44 0,-439.2 C -35.64,-415.44 -39.6,-378.36 0,-345.59999999999997 Z" transform="translate(450.0,560.0) rotate(56.00)" fill="none" stroke="#5E1A2C" stroke-width="1.4" stroke-linecap="round" stroke-linejoin="round"/><path d="M 0,-345.59999999999997 C 39.6,-378.36 35.64,-415.44 0,-439.2 C -35.64,-415.44 -39.6,-378.36 0,-345.59999999999997 Z" transform="translate(450.0,560.0) rotate(78.50)" fill="none" stroke="#5E1A2C" stroke-width="1.4" stroke-linecap="round" stroke-linejoin="round"/><path d="M 0,-345.59999999999997 C 39.6,-378.36 35.64,-415.44 0,-439.2 C -35.64,-415.44 -39.6,-378.36 0,-345.59999999999997 Z" transform="translate(450.0,560.0) rotate(101.00)" fill="none" stroke="#5E1A2C" stroke-width="1.4" stroke-linecap="round" stroke-linejoin="round"/><path d="M 0,-345.59999999999997 C 39.6,-378.36 35.64,-415.44 0,-439.2 C -35.64,-415.44 -39.6,-378.36 0,-345.59999999999997 Z" transform="translate(450.0,560.0) rotate(123.50)" fill="none" stroke="#5E1A2C" stroke-width="1.4" stroke-linecap="round" stroke-linejoin="round"/><path d="M 0,-345.59999999999997 C 39.6,-378.36 35.64,-415.44 0,-439.2 C -35.64,-415.44 -39.6,-378.36 0,-345.59999999999997 Z" transform="translate(450.0,560.0) rotate(146.00)" fill="none" stroke="#5E1A2C" stroke-width="1.4" stroke-linecap="round" stroke-linejoin="round"/><path d="M 0,-345.59999999999997 C 39.6,-378.36 35.64,-415.44 0,-439.2 C -35.64,-415.44 -39.6,-378.36 0,-345.59999999999997 Z" transform="translate(450.0,560.0) rotate(168.50)" fill="none" stroke="#5E1A2C" stroke-width="1.4" stroke-linecap="round" stroke-linejoin="round"/><path d="M 0,-345.59999999999997 C 39.6,-378.36 35.64,-415.44 0,-439.2 C -35.64,-415.44 -39.6,-378.36 0,-345.59999999999997 Z" transform="translate(450.0,560.0) rotate(191.00)" fill="none" stroke="#5E1A2C" stroke-width="1.4" stroke-linecap="round" stroke-linejoin="round"/><path d="M 0,-345.59999999999997 C 39.6,-378.36 35.64,-415.44 0,-439.2 C -35.64,-415.44 -39.6,-378.36 0,-345.59999999999997 Z" transform="translate(450.0,560.0) rotate(213.50)" fill="none" stroke="#5E1A2C" stroke-width="1.4" stroke-linecap="round" stroke-linejoin="round"/><path d="M 0,-345.59999999999997 C 39.6,-378.36 35.64,-415.44 0,-439.2 C -35.64,-415.44 -39.6,-378.36 0,-345.59999999999997 Z" transform="translate(450.0,560.0) rotate(236.00)" fill="none" stroke="#5E1A2C" stroke-width="1.4" stroke-linecap="round" stroke-linejoin="round"/><path d="M 0,-345.59999999999997 C 39.6,-378.36 35.64,-415.44 0,-439.2 C -35.64,-415.44 -39.6,-378.36 0,-345.59999999999997 Z" transform="translate(450.0,560.0) rotate(258.50)" fill="none" stroke="#5E1A2C" stroke-width="1.4" stroke-linecap="round" stroke-linejoin="round"/><path d="M 0,-345.59999999999997 C 39.6,-378.36 35.64,-415.44 0,-439.2 C -35.64,-415.44 -39.6,-378.36 0,-345.59999999999997 Z" transform="translate(450.0,560.0) rotate(281.00)" fill="none" stroke="#5E1A2C" stroke-width="1.4" stroke-linecap="round" stroke-linejoin="round"/><path d="M 0,-345.59999999999997 C 39.6,-378.36 35.64,-415.44 0,-439.2 C -35.64,-415.44 -39.6,-378.36 0,-345.59999999999997 Z" transform="translate(450.0,560.0) rotate(303.50)" fill="none" stroke="#5E1A2C" stroke-width="1.4" stroke-linecap="round" stroke-linejoin="round"/><path d="M 0,-345.59999999999997 C 39.6,-378.36 35.64,-415.44 0,-439.2 C -35.64,-415.44 -39.6,-378.36 0,-345.59999999999997 Z" transform="translate(450.0,560.0) rotate(326.00)" fill="none" stroke="#5E1A2C" stroke-width="1.4" stroke-linecap="round" stroke-linejoin="round"/><path d="M 0,-345.59999999999997 C 39.6,-378.36 35.64,-415.44 0,-439.2 C -35.64,-415.44 -39.6,-378.36 0,-345.59999999999997 Z" transform="translate(450.0,560.0) rotate(348.50)" fill="none" stroke="#5E1A2C" stroke-width="1.4" stroke-linecap="round" stroke-linejoin="round"/></g><path d="M 0,-405.0 C 18,-417.60 16.20,-430.20 0,-441.0 C -16.20,-430.20 -18,-417.60 0,-405.0 Z" transform="translate(450.0,560.0) rotate(15.00)" fill="none" stroke="#5E1A2C" stroke-width="1.3" stroke-linecap="round" stroke-linejoin="round"/><path d="M 0,-405.0 C 18,-417.60 16.20,-430.20 0,-441.0 C -16.20,-430.20 -18,-417.60 0,-405.0 Z" transform="translate(450.0,560.0) rotate(45.00)" fill="none" stroke="#5E1A2C" stroke-width="1.3" stroke-linecap="round" stroke-linejoin="round"/><path d="M 0,-405.0 C 18,-417.60 16.20,-430.20 0,-441.0 C -16.20,-430.20 -18,-417.60 0,-405.0 Z" transform="translate(450.0,560.0) rotate(75.00)" fill="none" stroke="#5E1A2C" stroke-width="1.3" stroke-linecap="round" stroke-linejoin="round"/><path d="M 0,-405.0 C 18,-417.60 16.20,-430.20 0,-441.0 C -16.20,-430.20 -18,-417.60 0,-405.0 Z" transform="translate(450.0,560.0) rotate(105.00)" fill="none" stroke="#5E1A2C" stroke-width="1.3" stroke-linecap="round" stroke-linejoin="round"/><path d="M 0,-405.0 C 18,-417.60 16.20,-430.20 0,-441.0 C -16.20,-430.20 -18,-417.60 0,-405.0 Z" transform="translate(450.0,560.0) rotate(135.00)" fill="none" stroke="#5E1A2C" stroke-width="1.3" stroke-linecap="round" stroke-linejoin="round"/><path d="M 0,-405.0 C 18,-417.60 16.20,-430.20 0,-441.0 C -16.20,-430.20 -18,-417.60 0,-405.0 Z" transform="translate(450.0,560.0) rotate(165.00)" fill="none" stroke="#5E1A2C" stroke-width="1.3" stroke-linecap="round" stroke-linejoin="round"/><path d="M 0,-405.0 C 18,-417.60 16.20,-430.20 0,-441.0 C -16.20,-430.20 -18,-417.60 0,-405.0 Z" transform="translate(450.0,560.0) rotate(195.00)" fill="none" stroke="#5E1A2C" stroke-width="1.3" stroke-linecap="round" stroke-linejoin="round"/><path d="M 0,-405.0 C 18,-417.60 16.20,-430.20 0,-441.0 C -16.20,-430.20 -18,-417.60 0,-405.0 Z" transform="translate(450.0,560.0) rotate(225.00)" fill="none" stroke="#5E1A2C" stroke-width="1.3" stroke-linecap="round" stroke-linejoin="round"/><path d="M 0,-405.0 C 18,-417.60 16.20,-430.20 0,-441.0 C -16.20,-430.20 -18,-417.60 0,-405.0 Z" transform="translate(450.0,560.0) rotate(255.00)" fill="none" stroke="#5E1A2C" stroke-width="1.3" stroke-linecap="round" stroke-linejoin="round"/><path d="M 0,-405.0 C 18,-417.60 16.20,-430.20 0,-441.0 C -16.20,-430.20 -18,-417.60 0,-405.0 Z" transform="translate(450.0,560.0) rotate(285.00)" fill="none" stroke="#5E1A2C" stroke-width="1.3" stroke-linecap="round" stroke-linejoin="round"/><path d="M 0,-405.0 C 18,-417.60 16.20,-430.20 0,-441.0 C -16.20,-430.20 -18,-417.60 0,-405.0 Z" transform="translate(450.0,560.0) rotate(315.00)" fill="none" stroke="#5E1A2C" stroke-width="1.3" stroke-linecap="round" stroke-linejoin="round"/><path d="M 0,-405.0 C 18,-417.60 16.20,-430.20 0,-441.0 C -16.20,-430.20 -18,-417.60 0,-405.0 Z" transform="translate(450.0,560.0) rotate(345.00)" fill="none" stroke="#5E1A2C" stroke-width="1.3" stroke-linecap="round" stroke-linejoin="round"/><rect x="20" y="20" width="860" height="1080" rx="6" fill="none" stroke="#B08A4A" stroke-width="2" stroke-opacity=".45"/></svg>